<svg width="0" height="0" class="hidden">
  <symbol fill="none" xmlns="http://www.w3.org/2000/svg" viewBox="0 0 24 24" id="location" >
    <path d="M17.657 16.6572L13.414 20.9002C13.2284 21.0859 13.0081 21.2333 12.7656 21.3338C12.523 21.4344 12.2631 21.4861 12.0005 21.4861C11.738 21.4861 11.478 21.4344 11.2354 21.3338C10.9929 21.2333 10.7726 21.0859 10.587 20.9002L6.343 16.6572C5.22422 15.5384 4.46234 14.1129 4.15369 12.5611C3.84504 11.0092 4.00349 9.40071 4.60901 7.93893C5.21452 6.47714 6.2399 5.22774 7.55548 4.3487C8.87107 3.46967 10.4178 3.00049 12 3.00049C13.5822 3.00049 15.1289 3.46967 16.4445 4.3487C17.7601 5.22774 18.7855 6.47714 19.391 7.93893C19.9965 9.40071 20.155 11.0092 19.8463 12.5611C19.5377 14.1129 18.7758 15.5384 17.657 16.6572V16.6572Z" stroke="#0060E5" stroke-linecap="round" stroke-linejoin="round"></path>
    <path d="M15 11C15 11.7956 14.6839 12.5587 14.1213 13.1213C13.5587 13.6839 12.7956 14 12 14C11.2044 14 10.4413 13.6839 9.87868 13.1213C9.31607 12.5587 9 11.7956 9 11C9 10.2044 9.31607 9.44129 9.87868 8.87868C10.4413 8.31607 11.2044 8 12 8C12.7956 8 13.5587 8.31607 14.1213 8.87868C14.6839 9.44129 15 10.2044 15 11V11Z" stroke="#0060E5" stroke-linecap="round" stroke-linejoin="round"></path>
  </symbol>

  <symbol xmlns="http://www.w3.org/2000/svg" viewBox="0 0 24 24" id="telegram" >
    <path d="M19.777 4.43a1.5 1.5 0 0 1 2.062 1.626l-2.268 13.757c-.22 1.327-1.676 2.088-2.893 1.427c-1.018-.553-2.53-1.405-3.89-2.294c-.68-.445-2.763-1.87-2.507-2.884c.22-.867 3.72-4.125 5.72-6.062c.785-.761.427-1.2-.5-.5c-2.303 1.738-5.998 4.381-7.22 5.125c-1.078.656-1.64.768-2.312.656c-1.226-.204-2.363-.52-3.291-.905c-1.254-.52-1.193-2.244-.001-2.746l17.1-7.2Z"></path>
  </symbol>

  <symbol xmlns="http://www.w3.org/2000/svg" viewBox="0 0 24 24" id="whatsapp" >
    <path  d="M19.05 4.91A9.816 9.816 0 0 0 12.04 2c-5.46 0-9.91 4.45-9.91 9.91c0 1.75.46 3.45 1.32 4.95L2.05 22l5.25-1.38c1.45.79 3.08 1.21 4.74 1.21c5.46 0 9.91-4.45 9.91-9.91c0-2.65-1.03-5.14-2.9-7.01zm-7.01 15.24c-1.48 0-2.93-.4-4.2-1.15l-.3-.18l-3.12.82l.83-3.04l-.2-.31a8.264 8.264 0 0 1-1.26-4.38c0-4.54 3.7-8.24 8.24-8.24c2.2 0 4.27.86 5.82 2.42a8.183 8.183 0 0 1 2.41 5.83c.02 4.54-3.68 8.23-8.22 8.23zm4.52-6.16c-.25-.12-1.47-.72-1.69-.81c-.23-.08-.39-.12-.56.12c-.17.25-.64.81-.78.97c-.14.17-.29.19-.54.06c-.25-.12-1.05-.39-1.99-1.23c-.74-.66-1.23-1.47-1.38-1.72c-.14-.25-.02-.38.11-.51c.11-.11.25-.29.37-.43s.17-.25.25-.41c.08-.17.04-.31-.02-.43s-.56-1.34-.76-1.84c-.2-.48-.41-.42-.56-.43h-.48c-.17 0-.43.06-.66.31c-.22.25-.86.85-.86 2.07c0 1.22.89 2.4 1.01 2.56c.12.17 1.75 2.67 4.23 3.74c.59.26 1.05.41 1.41.52c.59.19 1.13.16 1.56.1c.48-.07 1.47-.6 1.67-1.18c.21-.58.21-1.07.14-1.18s-.22-.16-.47-.28z"></path>
  </symbol>

  <symbol xmlns="http://www.w3.org/2000/svg"  viewBox="0 0 16 16" id="phone" >
    <path d="M1 2.55556C1 2.143 1.16389 1.74733 1.45561 1.45561C1.74733 1.16389 2.143 1 2.55556 1H5.10667C5.26984 1.00012 5.42884 1.05156 5.56117 1.14704C5.69349 1.24251 5.79244 1.37719 5.844 1.532L7.00911 5.02656C7.06815 5.20415 7.06116 5.39708 6.98945 5.56995C6.91773 5.74281 6.78609 5.88402 6.61867 5.96767L4.86322 6.84656C5.72369 8.75097 7.24903 10.2763 9.15344 11.1368L10.0323 9.38133C10.116 9.21391 10.2572 9.08227 10.4301 9.01055C10.6029 8.93884 10.7958 8.93185 10.9734 8.99089L14.468 10.156C14.6229 10.2076 14.7577 10.3067 14.8532 10.4391C14.9487 10.5716 15 10.7308 15 10.8941V13.4444C15 13.857 14.8361 14.2527 14.5444 14.5444C14.2527 14.8361 13.857 15 13.4444 15H12.6667C6.22356 15 1 9.77644 1 3.33333V2.55556Z" fill="none" stroke-linecap="round" stroke-linejoin="round"/>
  </symbol>

  <symbol viewBox="0 0 7 9" xmlns="http://www.w3.org/2000/svg" id="RArrow" >
    <path d="M6.68705 4.68705C6.88231 4.49179 6.88231 4.17521 6.68705 3.97994L3.50507 0.797963C3.30981 0.6027 2.99322 0.6027 2.79796 0.797962C2.6027 0.993225 2.6027 1.30981 2.79796 1.50507L5.62639 4.3335L2.79796 7.16192C2.6027 7.35719 2.6027 7.67377 2.79796 7.86903C2.99322 8.06429 3.30981 8.06429 3.50507 7.86903L6.68705 4.68705ZM0.333496 4.8335L6.3335 4.8335L6.3335 3.8335L0.333496 3.8335L0.333496 4.8335Z"/>
  </symbol>

  <symbol xmlns="http://www.w3.org/2000/svg" viewBox="0 0 24 24" id="search" >
    <path fill-rule="evenodd" clip-rule="evenodd" d="M18.0322 16.618C20.8625 13.0843 20.6397 7.91175 17.364 4.63604C13.8492 1.12132 8.15078 1.12131 4.63604 4.63604C1.12131 8.15078 1.12132 13.8492 4.63604 17.364C7.91175 20.6397 13.0843 20.8625 16.618 18.0322L20.1924 21.6066C20.5829 21.9971 21.2161 21.9971 21.6066 21.6066C21.9971 21.2161 21.9971 20.5829 21.6066 20.1924L18.0322 16.618ZM15.9498 6.05026C18.6834 8.78393 18.6834 13.2161 15.9498 15.9498C13.2161 18.6834 8.78393 18.6834 6.05026 15.9498C3.31659 13.2161 3.31661 8.78391 6.05026 6.05026C8.78391 3.31661 13.2161 3.31659 15.9498 6.05026Z"/>
  </symbol>

  <symbol xmlns="http://www.w3.org/2000/svg" viewBox="0 0 18 20" id="shop" >
    <path d="M13 9.33301V5.33301C13 4.27214 12.5786 3.25473 11.8284 2.50458C11.0783 1.75444 10.0609 1.33301 9 1.33301C7.93913 1.33301 6.92172 1.75444 6.17157 2.50458C5.42143 3.25473 5 4.27214 5 5.33301V9.33301M2 7.33301H16L17 19.333H1L2 7.33301Z" fill="none" stroke="white" stroke-width="1.25" stroke-linecap="round" stroke-linejoin="round"/>
  </symbol>

  <symbol viewBox="0 0 697 193" xmlns="http://www.w3.org/2000/svg" id="logo" >
    <path d="M199.455 145.328C198.834 145.328 198.327 145.13 197.932 144.736C197.537 144.341 197.34 143.833 197.34 143.213V88.2208C197.34 87.6004 197.537 87.0928 197.932 86.698C198.327 86.3032 198.834 86.1058 199.455 86.1058H245.056C245.676 86.1058 246.184 86.3032 246.579 86.698C246.973 87.0928 247.171 87.6004 247.171 88.2208V143.213C247.171 143.833 246.973 144.341 246.579 144.736C246.184 145.13 245.676 145.328 245.056 145.328H235.834C235.214 145.328 234.706 145.13 234.311 144.736C233.916 144.341 233.719 143.833 233.719 143.213V98.1194H210.792V143.213C210.792 143.833 210.594 144.341 210.199 144.736C209.805 145.13 209.297 145.328 208.677 145.328H199.455Z" fill="#000AFF"/>
    <path d="M261.833 145.328C261.213 145.328 260.705 145.13 260.31 144.736C259.915 144.341 259.718 143.833 259.718 143.213V88.2208C259.718 87.6004 259.915 87.0928 260.31 86.698C260.705 86.3032 261.213 86.1058 261.833 86.1058H284.93C289.498 86.1058 293.446 86.8108 296.774 88.2208C300.158 89.6309 302.781 91.7742 304.642 94.6507C306.56 97.4708 307.519 100.996 307.519 105.226C307.519 109.513 306.56 113.066 304.642 115.886C302.781 118.65 300.158 120.708 296.774 122.062C293.446 123.416 289.498 124.092 284.93 124.092H273.593V143.213C273.593 143.833 273.395 144.341 273.001 144.736C272.606 145.13 272.098 145.328 271.478 145.328H261.833ZM273.339 113.602H284.507C287.383 113.602 289.611 112.897 291.19 111.487C292.826 110.077 293.644 107.962 293.644 105.141C293.644 102.66 292.91 100.629 291.444 99.05C290.034 97.4708 287.721 96.6811 284.507 96.6811H273.339V113.602Z" fill="#000AFF"/>
    <path d="M339.667 146.174C334.534 146.174 330.107 145.328 326.384 143.636C322.662 141.944 319.757 139.406 317.67 136.021C315.583 132.581 314.455 128.266 314.286 123.077C314.23 120.652 314.201 118.255 314.201 115.886C314.201 113.461 314.23 111.007 314.286 108.526C314.455 103.449 315.583 99.191 317.67 95.7505C319.813 92.2536 322.746 89.6309 326.469 87.8824C330.248 86.134 334.647 85.2597 339.667 85.2597C344.63 85.2597 348.973 86.134 352.696 87.8824C356.475 89.6309 359.436 92.2536 361.579 95.7505C363.722 99.191 364.85 103.449 364.963 108.526C365.076 111.007 365.132 113.461 365.132 115.886C365.132 118.255 365.076 120.652 364.963 123.077C364.794 128.266 363.666 132.581 361.579 136.021C359.492 139.406 356.587 141.944 352.865 143.636C349.142 145.328 344.743 146.174 339.667 146.174ZM339.667 135.26C342.938 135.26 345.617 134.273 347.704 132.299C349.847 130.268 350.976 127.054 351.088 122.654C351.201 120.173 351.258 117.86 351.258 115.717C351.258 113.517 351.201 111.205 351.088 108.779C351.032 105.846 350.496 103.449 349.481 101.588C348.466 99.7268 347.112 98.3732 345.42 97.5272C343.784 96.6247 341.867 96.1735 339.667 96.1735C337.467 96.1735 335.521 96.6247 333.829 97.5272C332.137 98.3732 330.784 99.7268 329.768 101.588C328.81 103.449 328.274 105.846 328.161 108.779C328.105 111.205 328.076 113.517 328.076 115.717C328.076 117.86 328.105 120.173 328.161 122.654C328.33 127.054 329.458 130.268 331.545 132.299C333.632 134.273 336.339 135.26 339.667 135.26Z" fill="#000AFF"/>
    <path d="M403.214 148.035C402.594 148.035 402.086 147.838 401.691 147.443C401.297 147.048 401.099 146.54 401.099 145.92V139.913C392.695 139.913 386.181 138.052 381.556 134.329C376.987 130.607 374.393 125.051 373.772 117.663C373.716 117.155 373.688 116.506 373.688 115.717C373.688 114.927 373.688 114.138 373.688 113.348C373.744 112.502 373.772 111.853 373.772 111.402C374.054 106.495 375.324 102.406 377.58 99.1346C379.836 95.8069 382.966 93.297 386.971 91.605C391.031 89.8565 395.741 88.9823 401.099 88.9823V83.9061C401.099 83.3421 401.297 82.8627 401.691 82.4678C402.086 82.0166 402.594 81.791 403.214 81.791H412.521C413.085 81.791 413.564 82.0166 413.959 82.4678C414.354 82.8627 414.551 83.3421 414.551 83.9061V88.9823C419.966 88.9823 424.675 89.8565 428.68 91.605C432.684 93.297 435.843 95.8069 438.155 99.1346C440.468 102.406 441.737 106.495 441.962 111.402C442.019 112.643 442.047 113.686 442.047 114.532C442.103 115.322 442.075 116.365 441.962 117.663C441.398 125.051 438.804 130.607 434.179 134.329C429.554 138.052 423.011 139.913 414.551 139.913V145.92C414.551 146.54 414.354 147.048 413.959 147.443C413.564 147.838 413.085 148.035 412.521 148.035H403.214ZM401.184 128.999V99.896C397.066 99.896 393.852 100.855 391.539 102.773C389.227 104.634 387.901 107.623 387.563 111.74C387.563 112.643 387.563 113.545 387.563 114.448C387.563 115.294 387.563 116.196 387.563 117.155C387.788 121.272 389.057 124.29 391.37 126.208C393.739 128.069 397.01 128.999 401.184 128.999ZM414.466 128.999C418.697 128.999 421.968 128.069 424.28 126.208C426.649 124.29 427.918 121.272 428.088 117.155C428.144 116.704 428.172 116.14 428.172 115.463C428.172 114.786 428.172 114.109 428.172 113.433C428.172 112.699 428.144 112.135 428.088 111.74C427.749 107.623 426.424 104.634 424.111 102.773C421.855 100.855 418.64 99.896 414.466 99.896V128.999Z" fill="#000AFF"/>
    <path d="M476.155 146.174C470.853 146.174 466.341 145.3 462.619 143.551C458.953 141.746 456.104 139.152 454.074 135.768C452.043 132.327 450.915 128.153 450.69 123.246C450.633 120.934 450.605 118.452 450.605 115.801C450.605 113.15 450.633 110.612 450.69 108.187C450.915 103.337 452.043 99.2192 454.074 95.8351C456.161 92.3946 459.065 89.7719 462.788 87.967C466.51 86.1622 470.966 85.2597 476.155 85.2597C479.934 85.2597 483.375 85.7392 486.477 86.698C489.579 87.6568 492.258 89.0387 494.514 90.8435C496.77 92.6484 498.519 94.7635 499.759 97.1887C501 99.614 501.677 102.321 501.79 105.311C501.79 105.818 501.592 106.241 501.198 106.58C500.859 106.918 500.436 107.087 499.929 107.087H490.284C489.607 107.087 489.071 106.918 488.676 106.58C488.282 106.241 487.971 105.677 487.746 104.888C486.9 101.56 485.49 99.2756 483.516 98.0348C481.542 96.7939 479.088 96.1735 476.155 96.1735C472.658 96.1735 469.895 97.1323 467.864 99.05C465.834 100.968 464.734 104.154 464.565 108.61C464.395 113.235 464.395 117.973 464.565 122.823C464.734 127.279 465.834 130.466 467.864 132.384C469.895 134.301 472.658 135.26 476.155 135.26C479.088 135.26 481.542 134.64 483.516 133.399C485.546 132.102 486.956 129.817 487.746 126.546C487.971 125.7 488.282 125.136 488.676 124.854C489.071 124.515 489.607 124.346 490.284 124.346H499.929C500.436 124.346 500.859 124.515 501.198 124.854C501.592 125.192 501.79 125.615 501.79 126.123C501.677 129.112 501 131.82 499.759 134.245C498.519 136.67 496.77 138.785 494.514 140.59C492.258 142.395 489.579 143.777 486.477 144.736C483.375 145.694 479.934 146.174 476.155 146.174Z" fill="#000AFF"/>
    <path d="M513.411 145.328C512.79 145.328 512.283 145.13 511.888 144.736C511.493 144.341 511.296 143.833 511.296 143.213V88.2208C511.296 87.6004 511.493 87.0928 511.888 86.698C512.283 86.3032 512.79 86.1058 513.411 86.1058H522.633C523.253 86.1058 523.761 86.3032 524.155 86.698C524.55 87.0928 524.748 87.6004 524.748 88.2208V109.372H547.675V88.2208C547.675 87.6004 547.872 87.0928 548.267 86.698C548.662 86.3032 549.17 86.1058 549.79 86.1058H559.012C559.632 86.1058 560.14 86.3032 560.535 86.698C560.929 87.0928 561.127 87.6004 561.127 88.2208V143.213C561.127 143.833 560.929 144.341 560.535 144.736C560.14 145.13 559.632 145.328 559.012 145.328H549.79C549.17 145.328 548.662 145.13 548.267 144.736C547.872 144.341 547.675 143.833 547.675 143.213V121.385H524.748V143.213C524.748 143.833 524.55 144.341 524.155 144.736C523.761 145.13 523.253 145.328 522.633 145.328H513.411Z" fill="#000AFF"/>
    <path d="M570.205 145.328C569.698 145.328 569.275 145.159 568.936 144.82C568.598 144.425 568.428 144.002 568.428 143.551C568.428 143.269 568.457 143.015 568.513 142.79L588.649 88.39C588.818 87.7696 589.156 87.2338 589.664 86.7826C590.171 86.3314 590.876 86.1058 591.779 86.1058H602.608C603.511 86.1058 604.216 86.3314 604.723 86.7826C605.231 87.2338 605.569 87.7696 605.738 88.39L625.874 142.79C625.93 143.015 625.958 143.269 625.958 143.551C625.958 144.002 625.789 144.425 625.451 144.82C625.112 145.159 624.689 145.328 624.182 145.328H615.383C614.537 145.328 613.917 145.13 613.522 144.736C613.127 144.341 612.873 143.974 612.76 143.636L609.122 134.16H585.264L581.627 143.636C581.514 143.974 581.26 144.341 580.865 144.736C580.47 145.13 579.85 145.328 579.004 145.328H570.205ZM588.395 123.246H605.908L597.193 98.8808L588.395 123.246Z" fill="#000AFF"/>
    <path d="M635.358 145.328C634.738 145.328 634.23 145.13 633.835 144.736C633.44 144.341 633.243 143.833 633.243 143.213V88.2208C633.243 87.6004 633.44 87.0928 633.835 86.698C634.23 86.3032 634.738 86.1058 635.358 86.1058H674.952C675.573 86.1058 676.08 86.3032 676.475 86.698C676.87 87.0928 677.067 87.6004 677.067 88.2208V95.4121C677.067 95.9761 676.87 96.4555 676.475 96.8503C676.08 97.2451 675.573 97.4426 674.952 97.4426H646.695V109.287H659.808C666.351 109.287 671.483 110.894 675.206 114.109C678.985 117.324 680.874 121.667 680.874 127.138C680.874 129.563 680.395 131.876 679.436 134.076C678.534 136.275 677.208 138.221 675.46 139.913C673.711 141.605 671.512 142.931 668.861 143.89C666.266 144.848 663.249 145.328 659.808 145.328H635.358ZM646.695 135.429H658.539C660.344 135.429 661.867 135.034 663.108 134.245C664.405 133.455 665.364 132.412 665.984 131.115C666.661 129.817 666.999 128.435 666.999 126.969C666.999 124.713 666.266 122.823 664.8 121.301C663.39 119.778 661.303 119.016 658.539 119.016H646.695V135.429Z" fill="#000AFF"/>
    <path d="M199.141 158.904V178.266H197.788V157.669H206.939V178.266H205.556V158.904H199.141Z" fill="#000AFF"/>
    <path d="M221.846 157.669C223.435 157.669 224.563 158.13 225.23 159.052C225.917 159.954 226.26 161.16 226.26 162.671V164.907C226.26 166.555 225.878 167.781 225.113 168.585C224.347 169.39 223.141 169.792 221.493 169.792H218.933V178.266H217.58V157.669H221.846ZM221.493 168.556C222.69 168.556 223.553 168.281 224.083 167.732C224.632 167.163 224.907 166.251 224.907 164.995V162.583C224.907 161.464 224.681 160.572 224.23 159.905C223.798 159.238 223.004 158.904 221.846 158.904H218.933V168.556H221.493Z" fill="#000AFF"/>
    <path d="M236.508 162.7C236.508 161.955 236.596 161.268 236.772 160.641C236.949 159.993 237.214 159.444 237.567 158.993C237.94 158.522 238.41 158.159 238.979 157.904C239.548 157.629 240.225 157.492 241.01 157.492C241.794 157.492 242.471 157.629 243.04 157.904C243.628 158.159 244.109 158.522 244.482 158.993C244.854 159.444 245.129 159.993 245.306 160.641C245.482 161.268 245.57 161.955 245.57 162.7V173.234C245.57 173.98 245.482 174.676 245.306 175.324C245.129 175.951 244.854 176.501 244.482 176.971C244.109 177.423 243.628 177.785 243.04 178.06C242.471 178.315 241.794 178.443 241.01 178.443C240.225 178.443 239.548 178.315 238.979 178.06C238.41 177.785 237.94 177.423 237.567 176.971C237.214 176.501 236.949 175.951 236.772 175.324C236.596 174.676 236.508 173.98 236.508 173.234V162.7ZM237.861 173.323C237.861 174.441 238.096 175.373 238.567 176.118C239.058 176.844 239.872 177.207 241.01 177.207C242.147 177.207 242.961 176.844 243.452 176.118C243.962 175.373 244.217 174.441 244.217 173.323V162.612C244.217 161.494 243.962 160.572 243.452 159.846C242.961 159.101 242.147 158.728 241.01 158.728C239.872 158.728 239.058 159.101 238.567 159.846C238.096 160.572 237.861 161.494 237.861 162.612V173.323Z" fill="#000AFF"/>
    <path d="M260.926 168.703L257.572 178.266H256.1V157.669H257.336V175.294L259.72 168.497L263.663 157.669H265.281V178.266H264.045V160.052L260.926 168.703Z" fill="#000AFF"/>
    <path d="M280.277 157.492C281.061 157.492 281.728 157.629 282.277 157.904C282.846 158.159 283.307 158.522 283.66 158.993C284.033 159.444 284.298 159.993 284.455 160.641C284.631 161.268 284.72 161.955 284.72 162.7V163.23C284.72 164.25 284.475 165.143 283.984 165.908C283.513 166.653 282.827 167.173 281.924 167.467C282.866 167.742 283.562 168.262 284.014 169.027C284.484 169.772 284.72 170.645 284.72 171.645V173.234C284.72 173.98 284.631 174.676 284.455 175.324C284.298 175.951 284.033 176.501 283.66 176.971C283.307 177.423 282.846 177.785 282.277 178.06C281.728 178.315 281.061 178.443 280.277 178.443C279.492 178.443 278.815 178.315 278.246 178.06C277.697 177.785 277.236 177.423 276.863 176.971C276.51 176.501 276.245 175.951 276.069 175.324C275.912 174.676 275.833 173.98 275.833 173.234V171.528H277.128V173.323C277.128 173.872 277.177 174.382 277.275 174.853C277.393 175.324 277.579 175.735 277.834 176.089C278.089 176.442 278.413 176.716 278.805 176.912C279.198 177.109 279.678 177.207 280.247 177.207C281.385 177.207 282.189 176.834 282.66 176.089C283.131 175.343 283.366 174.382 283.366 173.205V171.616C283.366 170.557 283.082 169.713 282.513 169.085C281.964 168.458 281.189 168.144 280.188 168.144H279.041V166.908H280.277C281.199 166.908 281.944 166.584 282.513 165.937C283.082 165.27 283.366 164.456 283.366 163.495V162.73C283.366 161.553 283.131 160.591 282.66 159.846C282.189 159.101 281.385 158.728 280.247 158.728C279.109 158.728 278.295 159.101 277.805 159.846C277.334 160.572 277.099 161.494 277.099 162.612V163.73H275.863V162.671C275.863 161.925 275.941 161.239 276.098 160.611C276.275 159.983 276.54 159.444 276.893 158.993C277.246 158.522 277.697 158.159 278.246 157.904C278.815 157.629 279.492 157.492 280.277 157.492Z" fill="#000AFF"/>
    <path d="M299.636 157.669C301.186 157.669 302.275 158.041 302.902 158.787C303.53 159.532 303.844 160.621 303.844 162.053V163.23C303.844 164.348 303.648 165.25 303.255 165.937C302.883 166.624 302.176 167.075 301.137 167.291C302.255 167.506 303.049 168.007 303.52 168.791C303.991 169.556 304.226 170.527 304.226 171.704V173.499C304.226 174.99 303.873 176.157 303.167 177.001C302.461 177.844 301.313 178.266 299.724 178.266H295.311V157.669H299.636ZM298.959 166.761C299.567 166.761 300.087 166.712 300.519 166.614C300.97 166.516 301.343 166.349 301.637 166.114C301.931 165.859 302.147 165.525 302.284 165.113C302.422 164.682 302.49 164.142 302.49 163.495V162.171C302.49 161.092 302.284 160.278 301.872 159.728C301.46 159.179 300.705 158.904 299.607 158.904H296.664V166.761H298.959ZM299.724 177.03C300.862 177.03 301.666 176.726 302.137 176.118C302.628 175.51 302.873 174.627 302.873 173.47V171.616C302.873 170.282 302.569 169.35 301.961 168.821C301.353 168.271 300.44 167.997 299.224 167.997H296.664V177.03H299.724Z" fill="#000AFF"/>
    <path d="M314.641 162.7C314.641 161.955 314.729 161.268 314.906 160.641C315.082 159.993 315.347 159.444 315.7 158.993C316.073 158.522 316.544 158.159 317.112 157.904C317.681 157.629 318.358 157.492 319.143 157.492C319.927 157.492 320.604 157.629 321.173 157.904C321.762 158.159 322.242 158.522 322.615 158.993C322.988 159.444 323.262 159.993 323.439 160.641C323.615 161.268 323.704 161.955 323.704 162.7V173.234C323.704 173.98 323.615 174.676 323.439 175.324C323.262 175.951 322.988 176.501 322.615 176.971C322.242 177.423 321.762 177.785 321.173 178.06C320.604 178.315 319.927 178.443 319.143 178.443C318.358 178.443 317.681 178.315 317.112 178.06C316.544 177.785 316.073 177.423 315.7 176.971C315.347 176.501 315.082 175.951 314.906 175.324C314.729 174.676 314.641 173.98 314.641 173.234V162.7ZM315.994 173.323C315.994 174.441 316.23 175.373 316.7 176.118C317.191 176.844 318.005 177.207 319.143 177.207C320.28 177.207 321.095 176.844 321.585 176.118C322.095 175.373 322.35 174.441 322.35 173.323V162.612C322.35 161.494 322.095 160.572 321.585 159.846C321.095 159.101 320.28 158.728 319.143 158.728C318.005 158.728 317.191 159.101 316.7 159.846C316.23 160.572 315.994 161.494 315.994 162.612V173.323Z" fill="#000AFF"/>
    <path d="M345.121 181.12V178.266H335.293V181.12H333.969V177.03H335.381C335.793 176.599 336.058 176.108 336.176 175.559C336.293 175.01 336.372 174.402 336.411 173.735L337.235 157.669H344.768V177.03H346.474V181.12H345.121ZM337.735 173.735C337.696 174.441 337.617 175.069 337.5 175.618C337.402 176.147 337.156 176.618 336.764 177.03H343.385V158.904H338.5L337.735 173.735Z" fill="#000AFF"/>
    <path d="M361.283 157.492C362.067 157.492 362.734 157.629 363.283 157.904C363.852 158.159 364.313 158.522 364.666 158.993C365.039 159.444 365.304 159.993 365.461 160.641C365.637 161.268 365.726 161.955 365.726 162.7V164.407H364.431V162.612C364.431 162.063 364.372 161.553 364.254 161.082C364.156 160.611 363.98 160.199 363.725 159.846C363.47 159.493 363.146 159.218 362.754 159.022C362.361 158.826 361.881 158.728 361.312 158.728C360.743 158.728 360.263 158.826 359.87 159.022C359.478 159.218 359.154 159.493 358.899 159.846C358.644 160.199 358.458 160.611 358.34 161.082C358.242 161.553 358.193 162.063 358.193 162.612V173.323C358.193 173.872 358.242 174.382 358.34 174.853C358.458 175.324 358.644 175.735 358.899 176.089C359.154 176.422 359.478 176.687 359.87 176.883C360.263 177.079 360.743 177.177 361.312 177.177C361.881 177.177 362.361 177.079 362.754 176.883C363.146 176.687 363.47 176.422 363.725 176.089C363.98 175.735 364.156 175.324 364.254 174.853C364.372 174.382 364.431 173.872 364.431 173.323V170.88H365.726V173.234C365.726 173.98 365.637 174.676 365.461 175.324C365.304 175.951 365.039 176.501 364.666 176.971C364.313 177.423 363.852 177.785 363.283 178.06C362.734 178.315 362.067 178.443 361.283 178.443C360.498 178.443 359.821 178.315 359.252 178.06C358.703 177.785 358.242 177.423 357.869 176.971C357.516 176.501 357.251 175.951 357.075 175.324C356.918 174.676 356.839 173.98 356.839 173.234V162.7C356.839 161.955 356.918 161.268 357.075 160.641C357.251 159.993 357.516 159.444 357.869 158.993C358.242 158.522 358.703 158.159 359.252 157.904C359.821 157.629 360.498 157.492 361.283 157.492Z" fill="#000AFF"/>
    <path d="M380.086 178.266V158.904H375.878V157.669H385.647V158.904H381.439V178.266H380.086Z" fill="#000AFF"/>
    <path d="M400.262 157.669C401.812 157.669 402.901 158.041 403.528 158.787C404.156 159.532 404.47 160.621 404.47 162.053V163.23C404.47 164.348 404.274 165.25 403.882 165.937C403.509 166.624 402.803 167.075 401.763 167.291C402.881 167.506 403.676 168.007 404.146 168.791C404.617 169.556 404.853 170.527 404.853 171.704V173.499C404.853 174.99 404.499 176.157 403.793 177.001C403.087 177.844 401.939 178.266 400.351 178.266H395.937V157.669H400.262ZM399.585 166.761C400.194 166.761 400.713 166.712 401.145 166.614C401.596 166.516 401.969 166.349 402.263 166.114C402.557 165.859 402.773 165.525 402.91 165.113C403.048 164.682 403.116 164.142 403.116 163.495V162.171C403.116 161.092 402.91 160.278 402.499 159.728C402.087 159.179 401.331 158.904 400.233 158.904H397.29V166.761H399.585ZM400.351 177.03C401.488 177.03 402.293 176.726 402.763 176.118C403.254 175.51 403.499 174.627 403.499 173.47V171.616C403.499 170.282 403.195 169.35 402.587 168.821C401.979 168.271 401.067 167.997 399.85 167.997H397.29V177.03H400.351Z" fill="#000AFF"/>
    <path d="M422.329 167.202V168.438H416.709V177.03H423.476V178.266H415.355V157.669H423.476V158.904H416.709V167.202H422.329Z" fill="#000AFF"/>
    <path d="M435.322 168.585V178.266H433.969V157.669H435.322V167.349H441.737V157.669H443.12V178.266H441.737V168.585H435.322Z" fill="#000AFF"/>
    <path d="M455.114 168.585V178.266H453.761V157.669H455.114V167.349H461.529V157.669H462.912V178.266H461.529V168.585H455.114Z" fill="#000AFF"/>
    <path d="M475.524 173.705L474.494 178.266H473.258L477.76 157.639H479.732L484.322 178.266H482.969L481.939 173.705H475.524ZM475.73 172.528H481.733L478.702 159.199L475.73 172.528Z" fill="#000AFF"/>
    <path d="M500.169 169.056C499.58 169.056 499.051 169.115 498.58 169.233C498.109 169.331 497.697 169.517 497.344 169.792C497.011 170.047 496.756 170.4 496.579 170.851C496.403 171.302 496.314 171.871 496.314 172.558V175.794C496.314 176.363 496.285 176.844 496.226 177.236C496.167 177.609 496.049 177.952 495.873 178.266H494.46C494.676 177.933 494.814 177.55 494.872 177.118C494.931 176.667 494.961 176.226 494.961 175.794V172.587C494.961 171.469 495.186 170.547 495.637 169.821C496.108 169.095 496.873 168.615 497.933 168.379C495.951 167.928 494.961 166.506 494.961 164.113V162.318C494.961 160.866 495.304 159.728 495.991 158.904C496.677 158.081 497.805 157.669 499.374 157.669H503.67V178.266H502.317V169.056H500.169ZM499.404 158.904C498.286 158.904 497.491 159.218 497.02 159.846C496.55 160.454 496.314 161.317 496.314 162.435V164.377C496.314 165.064 496.403 165.633 496.579 166.084C496.756 166.535 497.001 166.888 497.315 167.143C497.648 167.398 498.05 167.575 498.521 167.673C498.992 167.771 499.531 167.82 500.139 167.82H502.317V158.904H499.404Z" fill="#000AFF"/>
    <path d="M529.947 168.585L528.535 170.822V178.266H527.181V157.669H528.535V168.556L535.244 157.669H536.656L530.771 167.261L537.039 178.266H535.626L529.947 168.585Z" fill="#000AFF"/>
    <path d="M547.287 162.7C547.287 161.955 547.376 161.268 547.552 160.641C547.729 159.993 547.994 159.444 548.347 158.993C548.719 158.522 549.19 158.159 549.759 157.904C550.328 157.629 551.005 157.492 551.789 157.492C552.574 157.492 553.251 157.629 553.82 157.904C554.408 158.159 554.889 158.522 555.261 158.993C555.634 159.444 555.909 159.993 556.085 160.641C556.262 161.268 556.35 161.955 556.35 162.7V173.234C556.35 173.98 556.262 174.676 556.085 175.324C555.909 175.951 555.634 176.501 555.261 176.971C554.889 177.423 554.408 177.785 553.82 178.06C553.251 178.315 552.574 178.443 551.789 178.443C551.005 178.443 550.328 178.315 549.759 178.06C549.19 177.785 548.719 177.423 548.347 176.971C547.994 176.501 547.729 175.951 547.552 175.324C547.376 174.676 547.287 173.98 547.287 173.234V162.7ZM548.641 173.323C548.641 174.441 548.876 175.373 549.347 176.118C549.837 176.844 550.652 177.207 551.789 177.207C552.927 177.207 553.741 176.844 554.232 176.118C554.742 175.373 554.997 174.441 554.997 173.323V162.612C554.997 161.494 554.742 160.572 554.232 159.846C553.741 159.101 552.927 158.728 551.789 158.728C550.652 158.728 549.837 159.101 549.347 159.846C548.876 160.572 548.641 161.494 548.641 162.612V173.323Z" fill="#000AFF"/>
    <path d="M573.795 178.237H572.441L568.087 160.023V178.266H566.88V157.669H568.822L573.148 175.883L577.444 157.669H579.386V178.266H578.091V159.964L573.795 178.237Z" fill="#000AFF"/>
    <path d="M591.388 158.904V178.266H590.034V157.669H599.185V178.266H597.802V158.904H591.388Z" fill="#000AFF"/>
    <path d="M611.797 173.705L610.768 178.266H609.532L614.034 157.639H616.005L620.595 178.266H619.242L618.212 173.705H611.797ZM612.003 172.528H618.006L614.975 159.199L612.003 172.528Z" fill="#000AFF"/>
    <path d="M632.293 168.585V178.266H630.94V157.669H632.293V167.349H638.708V157.669H640.091V178.266H638.708V168.585H632.293Z" fill="#000AFF"/>
    <path d="M655.557 168.703L652.203 178.266H650.732V157.669H651.967V175.294L654.351 168.497L658.294 157.669H659.912V178.266H658.676V160.052L655.557 168.703Z" fill="#000AFF"/>
    <path d="M676.026 169.056C675.437 169.056 674.908 169.115 674.437 169.233C673.966 169.331 673.554 169.517 673.201 169.792C672.868 170.047 672.613 170.4 672.436 170.851C672.26 171.302 672.171 171.871 672.171 172.558V175.794C672.171 176.363 672.142 176.844 672.083 177.236C672.024 177.609 671.906 177.952 671.73 178.266H670.318C670.533 177.933 670.671 177.55 670.729 177.118C670.788 176.667 670.818 176.226 670.818 175.794V172.587C670.818 171.469 671.043 170.547 671.495 169.821C671.965 169.095 672.73 168.615 673.79 168.379C671.808 167.928 670.818 166.506 670.818 164.113V162.318C670.818 160.866 671.161 159.728 671.848 158.904C672.534 158.081 673.662 157.669 675.232 157.669H679.528V178.266H678.174V169.056H676.026ZM675.261 158.904C674.143 158.904 673.348 159.218 672.878 159.846C672.407 160.454 672.171 161.317 672.171 162.435V164.377C672.171 165.064 672.26 165.633 672.436 166.084C672.613 166.535 672.858 166.888 673.172 167.143C673.505 167.398 673.907 167.575 674.378 167.673C674.849 167.771 675.388 167.82 675.997 167.82H678.174V158.904H675.261Z" fill="#000AFF"/>
    <path d="M196.657 0.0139856L252.938 32.6924L113.09 113.434L113.382 48.0929L196.657 0.0139856Z" fill="#2F80ED"/>
    <path d="M168 145L111 178L111 16L168 48.9998L168 145Z" fill="#2F80ED"/>
    <path d="M0 48L56.5 15.5845V178L-1.52588e-05 145L0 48Z" fill="#000AFF"/>
    <path d="M83.5 -6.10352e-05L140 32.9999L0 113V47.9999L83.5 -6.10352e-05Z" fill="#2F80ED"/>
    <path d="M83.5 -6.10352e-05L139.868 32.692L0 113L0.0205231 47.9999L83.5 -6.10352e-05Z" fill="url(#paint0_linear_411_29175)"/>
    <path d="M167.504 49.0001L167.504 114L26.5039 32L83.5039 -6.1823e-05L167.504 49.0001Z" fill="#000AFF"/>
    <defs>
      <linearGradient id="paint0_linear_411_29175" x1="125" y1="45.4999" x2="-10.5" y2="97.4999" gradientUnits="userSpaceOnUse">
      <stop stop-color="#000B22"/>
      <stop offset="1" stop-color="#2F80ED" stop-opacity="0"/>
      </linearGradient>
    </defs>
  </symbol>

  <symbol xmlns="http://www.w3.org/2000/svg" viewBox="0 0 20 20" id="close" >
    <path d="M16.364 2.22138L17.7782 3.6356L3.63604 17.7777L2.22183 16.3635L16.364 2.22138Z" />
    <path d="M17.7782 16.3635L16.364 17.7777L2.22183 3.6356L3.63604 2.22138L17.7782 16.3635Z" />
  </symbol>

  <symbol xmlns="http://www.w3.org/2000/svg" viewBox="0 0 113 29" id="dev" >
    <path d="M37.8109 9.57016V7.98816L37.7084 7.65125V4.88275C37.7084 4.34565 37.5473 3.93062 37.225 3.63766C36.9027 3.33493 36.4145 3.18356 35.7602 3.18356C35.3207 3.18356 34.8862 3.25192 34.4565 3.38864C34.0366 3.52535 33.6802 3.71578 33.3872 3.95992L32.6694 2.62693C33.0893 2.30467 33.5874 2.06542 34.1635 1.90918C34.7495 1.74316 35.3549 1.66016 35.9799 1.66016C37.1127 1.66016 37.9867 1.93359 38.6019 2.48045C39.2269 3.01755 39.5394 3.8525 39.5394 4.98529V9.57016H37.8109ZM35.35 9.67269C34.7641 9.67269 34.2514 9.57504 33.812 9.37973C33.3725 9.17466 33.0307 8.89634 32.7866 8.54479C32.5522 8.18347 32.4351 7.7782 32.4351 7.32899C32.4351 6.88955 32.5376 6.49405 32.7427 6.14249C32.9575 5.79093 33.3042 5.51262 33.7827 5.30755C34.2612 5.10247 34.8959 4.99993 35.6869 4.99993H37.9574V6.21573H35.8188C35.1938 6.21573 34.7739 6.31827 34.559 6.52334C34.3442 6.71865 34.2368 6.96279 34.2368 7.25575C34.2368 7.58777 34.3686 7.85144 34.6323 8.04675C34.8959 8.24206 35.2622 8.33971 35.7309 8.33971C36.1801 8.33971 36.5805 8.23718 36.932 8.0321C37.2934 7.82703 37.5521 7.5243 37.7084 7.12392L38.016 8.22253C37.8402 8.6815 37.5228 9.03794 37.0639 9.29184C36.6147 9.54574 36.0434 9.67269 35.35 9.67269Z" fill="white"/>
    <path d="M47.9281 9.57016L45.101 5.82023L46.5951 4.8974L50.0814 9.57016H47.9281ZM42.3179 9.57016V1.74804H44.1489V9.57016H42.3179ZM43.6069 6.43545V4.91205H46.2582V6.43545H43.6069ZM46.7709 5.87882L45.0571 5.67375L47.9281 1.74804H49.891L46.7709 5.87882Z" fill="white"/>
    <path d="M51.8855 9.57016V1.74804H53.7165V8.01745H57.4518V1.74804H59.2828V9.57016H51.8855ZM58.7555 11.3133V9.52621L59.1803 9.57016H57.4518V8.01745H60.4693V11.3133H58.7555Z" fill="white"/>
    <path d="M66.2592 9.67269C65.3901 9.67269 64.6284 9.5018 63.9741 9.16001C63.3296 8.80845 62.8267 8.32995 62.4654 7.72449C62.1138 7.11903 61.938 6.43057 61.938 5.6591C61.938 4.87787 62.1089 4.1894 62.4507 3.59371C62.8023 2.98826 63.2808 2.51463 63.8862 2.17284C64.5014 1.83105 65.1997 1.66016 65.9809 1.66016C66.7426 1.66016 67.4213 1.82617 68.017 2.15819C68.6127 2.49022 69.0814 2.95896 69.4232 3.56442C69.765 4.16987 69.9359 4.88275 69.9359 5.70305C69.9359 5.78117 69.931 5.86906 69.9213 5.96671C69.9213 6.06437 69.9164 6.15714 69.9066 6.24503H63.3882V5.02923H68.9398L68.2221 5.41008C68.2318 4.96087 68.1391 4.56537 67.9438 4.22358C67.7485 3.88179 67.4799 3.61324 67.1381 3.41793C66.8061 3.22263 66.4204 3.12497 65.9809 3.12497C65.5317 3.12497 65.1362 3.22263 64.7944 3.41793C64.4624 3.61324 64.1987 3.88668 64.0034 4.23823C63.8179 4.58002 63.7251 4.98529 63.7251 5.45403V5.74699C63.7251 6.21573 63.8325 6.63076 64.0474 6.99208C64.2622 7.3534 64.5649 7.63172 64.9555 7.82703C65.3462 8.02234 65.7954 8.11999 66.3032 8.11999C66.7426 8.11999 67.1381 8.05163 67.4897 7.91492C67.8412 7.7782 68.1537 7.56336 68.4272 7.2704L69.4086 8.3983C69.057 8.80845 68.6127 9.12583 68.0756 9.35043C67.5483 9.56527 66.9428 9.67269 66.2592 9.67269Z" fill="white"/>
    <path d="M72.4513 9.57016V1.74804H74.2823V4.92669H78.2226V1.74804H80.0537V9.57016H78.2226V6.4794H74.2823V9.57016H72.4513Z" fill="white"/>
    <path d="M84.6462 9.57016V2.8613L85.071 3.30075H81.8923V1.74804H89.2164V3.30075H86.0524L86.4772 2.8613V9.57016H84.6462Z" fill="white"/>
    <path d="M32.4351 20.0329V14.0034H33.8465V16.4536H36.8838V14.0034H38.2952V20.0329H36.8838V17.6505H33.8465V20.0329H32.4351Z" fill="white"/>
    <path d="M43.7322 20.0329V18.8135L43.6532 18.5538V16.4197C43.6532 16.0057 43.529 15.6858 43.2806 15.4599C43.0322 15.2266 42.6558 15.1099 42.1515 15.1099C41.8127 15.1099 41.4778 15.1626 41.1465 15.268C40.8229 15.3734 40.5481 15.5202 40.3223 15.7084L39.769 14.6808C40.0927 14.4324 40.4766 14.248 40.9207 14.1276C41.3724 13.9996 41.8391 13.9356 42.3208 13.9356C43.194 13.9356 43.8677 14.1464 44.342 14.5679C44.8237 14.982 45.0646 15.6256 45.0646 16.4987V20.0329H43.7322ZM41.8353 20.112C41.3837 20.112 40.9885 20.0367 40.6497 19.8861C40.311 19.7281 40.0475 19.5135 39.8593 19.2425C39.6787 18.964 39.5883 18.6516 39.5883 18.3054C39.5883 17.9666 39.6674 17.6617 39.8255 17.3908C39.9911 17.1198 40.2583 16.9052 40.6271 16.7472C40.996 16.5891 41.4853 16.51 42.095 16.51H43.8452V17.4472H42.1966C41.7149 17.4472 41.3912 17.5263 41.2256 17.6843C41.06 17.8349 40.9772 18.0231 40.9772 18.2489C40.9772 18.5048 41.0788 18.7081 41.282 18.8586C41.4853 19.0092 41.7676 19.0844 42.1289 19.0844C42.4752 19.0844 42.7838 19.0054 43.0548 18.8473C43.3333 18.6893 43.5328 18.4559 43.6532 18.1473L43.8903 18.9941C43.7548 19.3479 43.5102 19.6227 43.1564 19.8184C42.8101 20.0141 42.3698 20.112 41.8353 20.112Z" fill="white"/>
    <path d="M53.0481 20.112C52.5588 20.112 52.1109 19.999 51.7044 19.7732C51.3055 19.5474 50.9855 19.2087 50.7447 18.757C50.5113 18.2978 50.3946 17.7182 50.3946 17.0181C50.3946 16.3106 50.5075 15.7309 50.7334 15.2793C50.9667 14.8276 51.2829 14.4927 51.6818 14.2744C52.0808 14.0485 52.5362 13.9356 53.0481 13.9356C53.6428 13.9356 54.1659 14.0636 54.6176 14.3195C55.0768 14.5755 55.4381 14.933 55.7015 15.3922C55.9725 15.8514 56.108 16.3934 56.108 17.0181C56.108 17.6429 55.9725 18.1887 55.7015 18.6554C55.4381 19.1146 55.0768 19.4721 54.6176 19.7281C54.1659 19.984 53.6428 20.112 53.0481 20.112ZM49.7059 22.2234V14.0034H51.0495V15.4261L51.0044 17.0294L51.1173 18.6328V22.2234H49.7059ZM52.89 18.9038C53.2287 18.9038 53.5298 18.8285 53.7933 18.678C54.0643 18.5274 54.2788 18.3091 54.4369 18.0231C54.595 17.737 54.674 17.402 54.674 17.0181C54.674 16.6267 54.595 16.2917 54.4369 16.0132C54.2788 15.7272 54.0643 15.5089 53.7933 15.3583C53.5298 15.2078 53.2287 15.1325 52.89 15.1325C52.5513 15.1325 52.2464 15.2078 51.9754 15.3583C51.7044 15.5089 51.4899 15.7272 51.3318 16.0132C51.1737 16.2917 51.0947 16.6267 51.0947 17.0181C51.0947 17.402 51.1737 17.737 51.3318 18.0231C51.4899 18.3091 51.7044 18.5274 51.9754 18.678C52.2464 18.8285 52.5513 18.9038 52.89 18.9038Z" fill="white"/>
    <path d="M60.2113 20.112C59.5414 20.112 58.9542 19.9802 58.4499 19.7168C57.9531 19.4458 57.5654 19.0769 57.2869 18.6102C57.0159 18.1435 56.8804 17.6128 56.8804 17.0181C56.8804 16.4159 57.0121 15.8853 57.2756 15.4261C57.5466 14.9594 57.9155 14.5943 58.3822 14.3308C58.8564 14.0674 59.3946 13.9356 59.9968 13.9356C60.584 13.9356 61.1071 14.0636 61.5663 14.3195C62.0255 14.5755 62.3868 14.9368 62.6503 15.4035C62.9137 15.8702 63.0455 16.4197 63.0455 17.052C63.0455 17.1122 63.0417 17.18 63.0342 17.2553C63.0342 17.3305 63.0304 17.402 63.0229 17.4698H57.9983V16.5326H62.2777L61.7244 16.8262C61.7319 16.4799 61.6604 16.1751 61.5098 15.9116C61.3593 15.6481 61.1523 15.4411 60.8888 15.2906C60.6329 15.14 60.3355 15.0648 59.9968 15.0648C59.6505 15.0648 59.3457 15.14 59.0822 15.2906C58.8263 15.4411 58.623 15.6519 58.4725 15.9229C58.3295 16.1864 58.258 16.4987 58.258 16.8601V17.0859C58.258 17.4472 58.3408 17.7671 58.5064 18.0457C58.672 18.3242 58.9053 18.5387 59.2064 18.6893C59.5075 18.8398 59.8538 18.9151 60.2452 18.9151C60.584 18.9151 60.8888 18.8624 61.1598 18.757C61.4308 18.6516 61.6717 18.486 61.8825 18.2602L62.639 19.1296C62.368 19.4458 62.0255 19.6904 61.6115 19.8635C61.205 20.0292 60.7383 20.112 60.2113 20.112Z" fill="white"/>
    <path d="M66.2853 20.1345C66.8423 20.1345 67.3353 20.0555 67.7644 19.8974C68.201 19.7393 68.5435 19.521 68.7919 19.2425C69.0403 18.9565 69.1645 18.629 69.1645 18.2602C69.1645 17.801 68.9726 17.4397 68.5887 17.1762C68.2048 16.9052 67.6778 16.7697 67.0079 16.7697L66.9627 17.0746C67.3542 17.0746 67.7004 17.0106 68.0015 16.8826C68.3102 16.7547 68.551 16.5778 68.7242 16.352C68.9048 16.1186 68.9952 15.8589 68.9952 15.5729C68.9952 15.2266 68.871 14.9255 68.6226 14.6696C68.3741 14.4136 68.0354 14.2179 67.6063 14.0824C67.1773 13.9469 66.688 13.8905 66.1385 13.913C65.7771 13.9206 65.4121 13.9733 65.0432 14.0711C64.6819 14.1615 64.3093 14.2932 63.9254 14.4663L64.2867 15.5051C64.6179 15.3621 64.9416 15.2529 65.2578 15.1777C65.5814 15.1024 65.8938 15.0648 66.1949 15.0648C66.481 15.0648 66.7256 15.0949 66.9289 15.1551C67.1321 15.2078 67.2864 15.2906 67.3918 15.4035C67.5047 15.5089 67.5612 15.6331 67.5612 15.7761C67.5612 15.9191 67.516 16.0433 67.4257 16.1487C67.3353 16.2541 67.2036 16.3331 67.0305 16.3858C66.8649 16.4385 66.6616 16.4649 66.4208 16.4649H65.3707V17.4133H66.5337C66.9176 17.4133 67.2111 17.4773 67.4144 17.6053C67.6252 17.7257 67.7305 17.9064 67.7305 18.1473C67.7305 18.3129 67.6666 18.4597 67.5386 18.5876C67.4182 18.7156 67.245 18.8135 67.0192 18.8812C66.7934 18.9414 66.5224 18.9715 66.2062 18.9715C65.8374 18.9715 65.4685 18.9264 65.0997 18.836C64.7308 18.7457 64.3996 18.6177 64.106 18.4521L63.7108 19.5022C64.0722 19.7055 64.4749 19.8635 64.919 19.9765C65.3707 20.0818 65.8261 20.1345 66.2853 20.1345Z" fill="white"/>
    <path d="M71.0472 22.3025C70.7536 22.3025 70.46 22.2535 70.1665 22.1557C69.8729 22.0578 69.6282 21.9223 69.4325 21.7492L69.9971 20.7104C70.1401 20.8384 70.302 20.94 70.4826 21.0153C70.6633 21.0905 70.8477 21.1282 71.0359 21.1282C71.2918 21.1282 71.4988 21.0642 71.6569 20.9362C71.815 20.8083 71.9618 20.5937 72.0973 20.2926L72.4473 19.5022L72.5602 19.3329L74.8411 14.0034H76.196L73.3732 20.5184C73.185 20.9701 72.9742 21.3277 72.7409 21.5911C72.515 21.8546 72.2591 22.039 71.9731 22.1444C71.6945 22.2498 71.3859 22.3025 71.0472 22.3025ZM72.2892 20.2475L69.568 14.0034H71.0359L73.249 19.2087L72.2892 20.2475Z" fill="white"/>
    <path d="M75.8188 20.0216L75.8866 18.836C75.9392 18.8436 75.9882 18.8511 76.0333 18.8586C76.0785 18.8662 76.1199 18.8699 76.1575 18.8699C76.3909 18.8699 76.5716 18.7984 76.6995 18.6554C76.8275 18.5124 76.9216 18.3204 76.9818 18.0795C77.0496 17.8311 77.0947 17.5564 77.1173 17.2553C77.1474 16.9466 77.17 16.638 77.1851 16.3294L77.2867 14.0034H82.1645V20.0329H80.7531V14.8163L81.0805 15.2002H78.2126L78.5174 14.8051L78.4384 16.3971C78.4158 16.9316 78.3706 17.4284 78.3029 17.8876C78.2427 18.3392 78.1448 18.7344 78.0093 19.0732C77.8813 19.4119 77.7007 19.6754 77.4673 19.8635C77.2415 20.0517 76.9517 20.1458 76.5979 20.1458C76.485 20.1458 76.3608 20.1345 76.2253 20.112C76.0973 20.0894 75.9618 20.0593 75.8188 20.0216Z" fill="white"/>
    <path d="M86.9785 15.9906C87.7538 15.9906 88.3447 16.1638 88.7512 16.51C89.1577 16.8563 89.3609 17.3456 89.3609 17.9779C89.3609 18.6328 89.1351 19.1447 88.6835 19.5135C88.2318 19.8748 87.5957 20.0517 86.7752 20.0442L83.9524 20.0329V14.0034H85.3638V15.9793L86.9785 15.9906ZM86.651 19.0054C87.065 19.0129 87.3812 18.9264 87.5995 18.7457C87.8178 18.5651 87.9269 18.3016 87.9269 17.9553C87.9269 17.6091 87.8178 17.3606 87.5995 17.2101C87.3887 17.052 87.0726 16.9692 86.651 16.9617L85.3638 16.9504V18.9941L86.651 19.0054Z" fill="white"/>
    <path d="M91.1795 20.0329V14.8615L91.507 15.2002H89.0568V14.0034H94.7024V15.2002H92.2635L92.5909 14.8615V20.0329H91.1795Z" fill="white"/>
    <path d="M99.2717 20.0329V18.8135L99.1926 18.5538V16.4197C99.1926 16.0057 99.0684 15.6858 98.82 15.4599C98.5716 15.2266 98.1952 15.1099 97.6909 15.1099C97.3522 15.1099 97.0172 15.1626 96.686 15.268C96.3623 15.3734 96.0875 15.5202 95.8617 15.7084L95.3084 14.6808C95.6321 14.4324 96.016 14.248 96.4602 14.1276C96.9118 13.9996 97.3785 13.9356 97.8603 13.9356C98.7335 13.9356 99.4072 14.1464 99.8814 14.5679C100.363 14.982 100.604 15.6256 100.604 16.4987V20.0329H99.2717ZM97.3747 20.112C96.9231 20.112 96.5279 20.0367 96.1892 19.8861C95.8504 19.7281 95.587 19.5135 95.3988 19.2425C95.2181 18.964 95.1278 18.6516 95.1278 18.3054C95.1278 17.9666 95.2068 17.6617 95.3649 17.3908C95.5305 17.1198 95.7977 16.9052 96.1666 16.7472C96.5354 16.5891 97.0247 16.51 97.6344 16.51H99.3846V17.4472H97.7361C97.2543 17.4472 96.9306 17.5263 96.765 17.6843C96.5994 17.8349 96.5166 18.0231 96.5166 18.2489C96.5166 18.5048 96.6182 18.7081 96.8215 18.8586C97.0247 19.0092 97.307 19.0844 97.6683 19.0844C98.0146 19.0844 98.3232 19.0054 98.5942 18.8473C98.8727 18.6893 99.0722 18.4559 99.1926 18.1473L99.4298 18.9941C99.2943 19.3479 99.0496 19.6227 98.6958 19.8184C98.3496 20.0141 97.9092 20.112 97.3747 20.112Z" fill="white"/>
    <path d="M103.491 20.0329V14.8615L103.818 15.2002H101.368V14.0034H107.014V15.2002H104.575L104.902 14.8615V20.0329H103.491Z" fill="white"/>
    <path d="M110.907 13.756L108.292 20.0338H110.384L113 13.756H110.907Z" fill="#FF1864"/>
    <circle cx="13.6019" cy="14.803" r="13.6019" fill="#FF1864"/>
    <path d="M7.32422 21.0804L12.0904 7.47852H15.0982L19.8798 21.0804H16.7023L12.9696 9.36334H14.1727L10.44 21.0804H7.32422ZM9.93096 18.4377L10.7176 15.6008H15.9928L16.7794 18.4377H9.93096Z" fill="white"/>
    <path d="M18.3101 0.154297L15.6943 6.43208H17.7869L20.4027 0.154297H18.3101Z" fill="white"/>
  </symbol>

  <symbol width="24" height="24" xmlns="http://www.w3.org/2000/svg" viewBox="0 0 24 24" id="catalog" >
    <path d="M7 21H19C19.5304 21 20.0391 20.7893 20.4142 20.4142C20.7893 20.0391 21 19.5304 21 19V15C21 14.4696 20.7893 13.9609 20.4142 13.5858C20.0391 13.2107 19.5304 13 19 13H16.657M11 7.343L12.657 5.686C13.0321 5.31106 13.5407 5.10043 14.071 5.10043C14.6013 5.10043 15.1099 5.31106 15.485 5.686L18.314 8.515C18.6889 8.89006 18.8996 9.39867 18.8996 9.929C18.8996 10.4593 18.6889 10.9679 18.314 11.343L9.828 19.828M7 17H7.01M7 21C5.93913 21 4.92172 20.5786 4.17157 19.8284C3.42143 19.0783 3 18.0609 3 17V5C3 4.46957 3.21071 3.96086 3.58579 3.58579C3.96086 3.21071 4.46957 3 5 3H9C9.53043 3 10.0391 3.21071 10.4142 3.58579C10.7893 3.96086 11 4.46957 11 5V17C11 18.0609 10.5786 19.0783 9.82843 19.8284C9.07828 20.5786 8.06087 21 7 21V21Z" stroke="white" stroke-width="1.5" stroke-linecap="round" stroke-linejoin="round"/>
  </symbol>

  <symbol xmlns="http://www.w3.org/2000/svg" viewBox="0 0 42 43" id="supplies" >
    <mask id="path-1-outside-1_408_18346" maskUnits="userSpaceOnUse" x="0" y="0.000976562" width="42" height="43" fill="black">
      <rect fill="white" y="0.000976562" width="42" height="43"/>
      <path d="M11.1261 3.38753C2.77311 5.41274 1.27731 5.7993 1.15126 5.95056C1.01681 6.11862 1 6.32871 1 7.73207C1 9.3035 1 9.3203 1.21008 9.52199C1.45378 9.77409 1.61345 9.77409 2.41176 9.57241L3.01681 9.41274V17.7993H4.36135V9.10182L10.2689 7.68165C13.5126 6.89173 17.2941 5.98417 18.6723 5.64804L21.1849 5.0514L37.9748 9.10182V40.6564H33.9412V14.1774L33.7311 13.9758L33.5294 13.7657H8.80672L8.60504 13.9758C8.39496 14.1774 8.39496 14.1943 8.39496 15.7825C8.39496 17.3707 8.39496 17.3875 8.60504 17.5892L8.80672 17.7993H32.5966V19.1438H15.7899V20.4884H32.5966V21.8329H15.7899V23.1774H32.5966V24.522H15.7899V25.8665H32.5966V40.6564H27.8908V42.001H41.3361V40.6564H39.3193V9.41274L39.9328 9.57241C40.7227 9.77409 40.8824 9.77409 41.1261 9.52199C41.3361 9.3203 41.3361 9.3035 41.3361 7.73207C41.3361 6.3203 41.3193 6.11862 41.1849 5.95056C41.0588 5.79089 39.6303 5.42114 31.1597 3.37913C25.7395 2.0682 21.2185 1.00098 21.1261 1.00098C21.0336 1.00938 16.5378 2.07661 11.1261 3.38753ZM30.6639 4.64804C35.7731 5.88333 39.958 6.90014 39.9748 6.91694C39.9916 6.92535 39.9916 7.21946 39.9748 7.564L39.9496 8.19425L34.8235 6.95896C32.0084 6.27829 27.7815 5.25308 25.437 4.69005L21.1765 3.65644L11.8655 5.90014C6.7479 7.13543 2.5042 8.16064 2.45378 8.17745C2.36975 8.20266 2.34454 8.04299 2.34454 7.564V6.90854L4.68067 6.33711C17.6219 3.20266 21.1429 2.36232 21.2521 2.38753C21.3193 2.39593 25.5546 3.42114 30.6639 4.64804ZM32.5966 16.4548H9.7395V15.1102H32.5966V16.4548Z"/>
      <path d="M19.1513 7.82447C18.7395 7.95893 18.0336 8.68162 17.9076 9.11019C17.6723 9.9001 17.8404 10.5304 18.437 11.1186C19.0168 11.6984 19.2269 11.7488 21.1849 11.7488C23.1513 11.7488 23.4202 11.6816 23.9664 11.0766C24.7227 10.2362 24.7227 9.22784 23.9664 8.3875C23.4118 7.77405 23.1597 7.71523 21.1345 7.72363C20.1597 7.73204 19.3193 7.77405 19.1513 7.82447ZM22.9748 9.26985C23.1093 9.3959 23.1849 9.57237 23.1849 9.73204C23.1849 9.8917 23.1093 10.0682 22.9748 10.1942C22.7731 10.4043 22.7563 10.4043 21.1681 10.4043C19.5798 10.4043 19.563 10.4043 19.3614 10.1942C19.2269 10.0682 19.1513 9.8917 19.1513 9.73204C19.1513 9.57237 19.2269 9.3959 19.3614 9.26985C19.563 9.05977 19.5798 9.05977 21.1681 9.05977C22.7563 9.05977 22.7731 9.05977 22.9748 9.26985Z"/>
      <path d="M1.21008 19.3539L1 19.5556V41.5892L1.21008 41.7909L1.41176 42.001H26.1345L26.3361 41.7909L26.5462 41.5892V30.3119L26.3361 30.1102L26.1345 29.9001H14.4454V19.5556L14.2353 19.3539L14.0336 19.1438H1.41176L1.21008 19.3539ZM5.03361 22.2951C5.03361 24.1102 5.03361 24.1102 5.2437 24.3119L5.44538 24.522H10L10.2017 24.3119C10.4118 24.1102 10.4118 24.1102 10.4118 22.2951V20.4884H13.1008V29.9001H2.34454V20.4884H5.03361V22.2951ZM9.06723 23.1774H6.37815V20.4884H9.06723V23.1774ZM5.03361 33.0514C5.03361 34.8665 5.03361 34.8665 5.2437 35.0682L5.44538 35.2783H10L10.2017 35.0682C10.4118 34.8665 10.4118 34.8665 10.4118 33.0514V31.2447H13.1008V40.6564H2.34454V31.2447H5.03361V33.0514ZM9.06723 33.9338H6.37815V31.2447H9.06723V33.9338ZM17.1345 33.0514C17.1345 34.8665 17.1345 34.8665 17.3445 35.0682L17.5462 35.2783H22.1008L22.3025 35.0682C22.5126 34.8665 22.5126 34.8665 22.5126 33.0514V31.2447H25.2017V40.6564H14.4454V31.2447H17.1345V33.0514ZM21.1681 33.9338H18.479V31.2447H21.1681V33.9338Z"/>
      <path d="M10.4119 28.5556H11.7564V27.211H10.4119V28.5556Z"/>
      <path d="M10.4119 39.3119H11.7564V37.9674H10.4119V39.3119Z"/>
      <path d="M22.5126 39.3119H23.8571V37.9674H22.5126V39.3119Z"/>
    </mask>
      <path d="M11.1261 3.38753C2.77311 5.41274 1.27731 5.7993 1.15126 5.95056C1.01681 6.11862 1 6.32871 1 7.73207C1 9.3035 1 9.3203 1.21008 9.52199C1.45378 9.77409 1.61345 9.77409 2.41176 9.57241L3.01681 9.41274V17.7993H4.36135V9.10182L10.2689 7.68165C13.5126 6.89173 17.2941 5.98417 18.6723 5.64804L21.1849 5.0514L37.9748 9.10182V40.6564H33.9412V14.1774L33.7311 13.9758L33.5294 13.7657H8.80672L8.60504 13.9758C8.39496 14.1774 8.39496 14.1943 8.39496 15.7825C8.39496 17.3707 8.39496 17.3875 8.60504 17.5892L8.80672 17.7993H32.5966V19.1438H15.7899V20.4884H32.5966V21.8329H15.7899V23.1774H32.5966V24.522H15.7899V25.8665H32.5966V40.6564H27.8908V42.001H41.3361V40.6564H39.3193V9.41274L39.9328 9.57241C40.7227 9.77409 40.8824 9.77409 41.1261 9.52199C41.3361 9.3203 41.3361 9.3035 41.3361 7.73207C41.3361 6.3203 41.3193 6.11862 41.1849 5.95056C41.0588 5.79089 39.6303 5.42114 31.1597 3.37913C25.7395 2.0682 21.2185 1.00098 21.1261 1.00098C21.0336 1.00938 16.5378 2.07661 11.1261 3.38753ZM30.6639 4.64804C35.7731 5.88333 39.958 6.90014 39.9748 6.91694C39.9916 6.92535 39.9916 7.21946 39.9748 7.564L39.9496 8.19425L34.8235 6.95896C32.0084 6.27829 27.7815 5.25308 25.437 4.69005L21.1765 3.65644L11.8655 5.90014C6.7479 7.13543 2.5042 8.16064 2.45378 8.17745C2.36975 8.20266 2.34454 8.04299 2.34454 7.564V6.90854L4.68067 6.33711C17.6219 3.20266 21.1429 2.36232 21.2521 2.38753C21.3193 2.39593 25.5546 3.42114 30.6639 4.64804ZM32.5966 16.4548H9.7395V15.1102H32.5966V16.4548Z" fill="url(#paint0_linear_408_18346)"/>
      <path d="M19.1513 7.82447C18.7395 7.95893 18.0336 8.68162 17.9076 9.11019C17.6723 9.9001 17.8404 10.5304 18.437 11.1186C19.0168 11.6984 19.2269 11.7488 21.1849 11.7488C23.1513 11.7488 23.4202 11.6816 23.9664 11.0766C24.7227 10.2362 24.7227 9.22784 23.9664 8.3875C23.4118 7.77405 23.1597 7.71523 21.1345 7.72363C20.1597 7.73204 19.3193 7.77405 19.1513 7.82447ZM22.9748 9.26985C23.1093 9.3959 23.1849 9.57237 23.1849 9.73204C23.1849 9.8917 23.1093 10.0682 22.9748 10.1942C22.7731 10.4043 22.7563 10.4043 21.1681 10.4043C19.5798 10.4043 19.563 10.4043 19.3614 10.1942C19.2269 10.0682 19.1513 9.8917 19.1513 9.73204C19.1513 9.57237 19.2269 9.3959 19.3614 9.26985C19.563 9.05977 19.5798 9.05977 21.1681 9.05977C22.7563 9.05977 22.7731 9.05977 22.9748 9.26985Z" fill="url(#paint1_linear_408_18346)"/>
      <path d="M1.21008 19.3539L1 19.5556V41.5892L1.21008 41.7909L1.41176 42.001H26.1345L26.3361 41.7909L26.5462 41.5892V30.3119L26.3361 30.1102L26.1345 29.9001H14.4454V19.5556L14.2353 19.3539L14.0336 19.1438H1.41176L1.21008 19.3539ZM5.03361 22.2951C5.03361 24.1102 5.03361 24.1102 5.2437 24.3119L5.44538 24.522H10L10.2017 24.3119C10.4118 24.1102 10.4118 24.1102 10.4118 22.2951V20.4884H13.1008V29.9001H2.34454V20.4884H5.03361V22.2951ZM9.06723 23.1774H6.37815V20.4884H9.06723V23.1774ZM5.03361 33.0514C5.03361 34.8665 5.03361 34.8665 5.2437 35.0682L5.44538 35.2783H10L10.2017 35.0682C10.4118 34.8665 10.4118 34.8665 10.4118 33.0514V31.2447H13.1008V40.6564H2.34454V31.2447H5.03361V33.0514ZM9.06723 33.9338H6.37815V31.2447H9.06723V33.9338ZM17.1345 33.0514C17.1345 34.8665 17.1345 34.8665 17.3445 35.0682L17.5462 35.2783H22.1008L22.3025 35.0682C22.5126 34.8665 22.5126 34.8665 22.5126 33.0514V31.2447H25.2017V40.6564H14.4454V31.2447H17.1345V33.0514ZM21.1681 33.9338H18.479V31.2447H21.1681V33.9338Z" fill="url(#paint2_linear_408_18346)"/>
      <path d="M10.4119 28.5556H11.7564V27.211H10.4119V28.5556Z" fill="url(#paint3_linear_408_18346)"/>
      <path d="M10.4119 39.3119H11.7564V37.9674H10.4119V39.3119Z" fill="url(#paint4_linear_408_18346)"/>
      <path d="M22.5126 39.3119H23.8571V37.9674H22.5126V39.3119Z" fill="url(#paint5_linear_408_18346)"/>
      <path d="M11.1261 3.38753C2.77311 5.41274 1.27731 5.7993 1.15126 5.95056C1.01681 6.11862 1 6.32871 1 7.73207C1 9.3035 1 9.3203 1.21008 9.52199C1.45378 9.77409 1.61345 9.77409 2.41176 9.57241L3.01681 9.41274V17.7993H4.36135V9.10182L10.2689 7.68165C13.5126 6.89173 17.2941 5.98417 18.6723 5.64804L21.1849 5.0514L37.9748 9.10182V40.6564H33.9412V14.1774L33.7311 13.9758L33.5294 13.7657H8.80672L8.60504 13.9758C8.39496 14.1774 8.39496 14.1943 8.39496 15.7825C8.39496 17.3707 8.39496 17.3875 8.60504 17.5892L8.80672 17.7993H32.5966V19.1438H15.7899V20.4884H32.5966V21.8329H15.7899V23.1774H32.5966V24.522H15.7899V25.8665H32.5966V40.6564H27.8908V42.001H41.3361V40.6564H39.3193V9.41274L39.9328 9.57241C40.7227 9.77409 40.8824 9.77409 41.1261 9.52199C41.3361 9.3203 41.3361 9.3035 41.3361 7.73207C41.3361 6.3203 41.3193 6.11862 41.1849 5.95056C41.0588 5.79089 39.6303 5.42114 31.1597 3.37913C25.7395 2.0682 21.2185 1.00098 21.1261 1.00098C21.0336 1.00938 16.5378 2.07661 11.1261 3.38753ZM30.6639 4.64804C35.7731 5.88333 39.958 6.90014 39.9748 6.91694C39.9916 6.92535 39.9916 7.21946 39.9748 7.564L39.9496 8.19425L34.8235 6.95896C32.0084 6.27829 27.7815 5.25308 25.437 4.69005L21.1765 3.65644L11.8655 5.90014C6.7479 7.13543 2.5042 8.16064 2.45378 8.17745C2.36975 8.20266 2.34454 8.04299 2.34454 7.564V6.90854L4.68067 6.33711C17.6219 3.20266 21.1429 2.36232 21.2521 2.38753C21.3193 2.39593 25.5546 3.42114 30.6639 4.64804ZM32.5966 16.4548H9.7395V15.1102H32.5966V16.4548Z" stroke="url(#paint6_linear_408_18346)" stroke-width="0.2" mask="url(#path-1-outside-1_408_18346)"/>
      <path d="M19.1513 7.82447C18.7395 7.95893 18.0336 8.68162 17.9076 9.11019C17.6723 9.9001 17.8404 10.5304 18.437 11.1186C19.0168 11.6984 19.2269 11.7488 21.1849 11.7488C23.1513 11.7488 23.4202 11.6816 23.9664 11.0766C24.7227 10.2362 24.7227 9.22784 23.9664 8.3875C23.4118 7.77405 23.1597 7.71523 21.1345 7.72363C20.1597 7.73204 19.3193 7.77405 19.1513 7.82447ZM22.9748 9.26985C23.1093 9.3959 23.1849 9.57237 23.1849 9.73204C23.1849 9.8917 23.1093 10.0682 22.9748 10.1942C22.7731 10.4043 22.7563 10.4043 21.1681 10.4043C19.5798 10.4043 19.563 10.4043 19.3614 10.1942C19.2269 10.0682 19.1513 9.8917 19.1513 9.73204C19.1513 9.57237 19.2269 9.3959 19.3614 9.26985C19.563 9.05977 19.5798 9.05977 21.1681 9.05977C22.7563 9.05977 22.7731 9.05977 22.9748 9.26985Z" stroke="url(#paint7_linear_408_18346)" stroke-width="0.2" mask="url(#path-1-outside-1_408_18346)"/>
      <path d="M1.21008 19.3539L1 19.5556V41.5892L1.21008 41.7909L1.41176 42.001H26.1345L26.3361 41.7909L26.5462 41.5892V30.3119L26.3361 30.1102L26.1345 29.9001H14.4454V19.5556L14.2353 19.3539L14.0336 19.1438H1.41176L1.21008 19.3539ZM5.03361 22.2951C5.03361 24.1102 5.03361 24.1102 5.2437 24.3119L5.44538 24.522H10L10.2017 24.3119C10.4118 24.1102 10.4118 24.1102 10.4118 22.2951V20.4884H13.1008V29.9001H2.34454V20.4884H5.03361V22.2951ZM9.06723 23.1774H6.37815V20.4884H9.06723V23.1774ZM5.03361 33.0514C5.03361 34.8665 5.03361 34.8665 5.2437 35.0682L5.44538 35.2783H10L10.2017 35.0682C10.4118 34.8665 10.4118 34.8665 10.4118 33.0514V31.2447H13.1008V40.6564H2.34454V31.2447H5.03361V33.0514ZM9.06723 33.9338H6.37815V31.2447H9.06723V33.9338ZM17.1345 33.0514C17.1345 34.8665 17.1345 34.8665 17.3445 35.0682L17.5462 35.2783H22.1008L22.3025 35.0682C22.5126 34.8665 22.5126 34.8665 22.5126 33.0514V31.2447H25.2017V40.6564H14.4454V31.2447H17.1345V33.0514ZM21.1681 33.9338H18.479V31.2447H21.1681V33.9338Z" stroke="url(#paint8_linear_408_18346)" stroke-width="0.2" mask="url(#path-1-outside-1_408_18346)"/>
      <path d="M10.4119 28.5556H11.7564V27.211H10.4119V28.5556Z" stroke="url(#paint9_linear_408_18346)" stroke-width="0.2" mask="url(#path-1-outside-1_408_18346)"/>
      <path d="M10.4119 39.3119H11.7564V37.9674H10.4119V39.3119Z" stroke="url(#paint10_linear_408_18346)" stroke-width="0.2" mask="url(#path-1-outside-1_408_18346)"/>
      <path d="M22.5126 39.3119H23.8571V37.9674H22.5126V39.3119Z" stroke="url(#paint11_linear_408_18346)" stroke-width="0.2" mask="url(#path-1-outside-1_408_18346)"/>
  </symbol>

  <symbol xmlns="http://www.w3.org/2000/svg" viewBox="0 0 16 16" id="burger" >
    <path fill-rule="evenodd" d="M0 3.75A.75.75 0 0 1 .75 3h14.5a.75.75 0 0 1 0 1.5H.75A.75.75 0 0 1 0 3.75ZM0 8a.75.75 0 0 1 .75-.75h14.5a.75.75 0 0 1 0 1.5H.75A.75.75 0 0 1 0 8Zm.75 3.5a.75.75 0 0 0 0 1.5h14.5a.75.75 0 0 0 0-1.5H.75Z" clip-rule="evenodd"/>
  </symbol>

  <symbol width="56" height="90" viewBox="0 0 56 90" fill="none" xmlns="http://www.w3.org/2000/svg" id="map-pin" >
    <path fill-rule="evenodd" clip-rule="evenodd" d="M44.3797 50.7117C51.4191 45.626 56 37.3479 56 28C56 12.536 43.464 0 28 0C12.536 0 0 12.536 0 28C0 37.3479 4.58089 45.626 11.6203 50.7117C17.7342 57.9527 20.7411 68.3579 23.5572 78.1025C24.6554 81.9025 25.7245 85.6021 26.9375 88.9744C27.122 89.4872 27.575 90 28 90C28.425 90 28.878 89.4872 29.0625 88.9744C30.2755 85.6021 31.3446 81.9025 32.4428 78.1025C35.2589 68.3579 38.2658 57.9527 44.3797 50.7117ZM43 28C43 36.2843 36.2843 43 28 43C19.7157 43 13 36.2843 13 28C13 19.7157 19.7157 13 28 13C36.2843 13 43 19.7157 43 28Z" fill="url(#paint0_linear_408_20401)"/>
    <defs>
    <linearGradient id="paint0_linear_408_20401" x1="28" y1="0" x2="28" y2="90" gradientUnits="userSpaceOnUse">
    <stop stop-color="#18A5D7"/>
    <stop offset="1" stop-color="#9C31FE"/>
    </linearGradient>
    </defs>
  </symbol>

  <symbol xmlns="http://www.w3.org/2000/svg" viewBox="0 0 12 18" id="question" >
    <path d="M5.45117 13.8423C5.29543 13.8423 5.16564 13.8 5.0618 13.7155C4.95797 13.6141 4.90606 13.4789 4.90606 13.3099C4.90606 13.1408 4.90606 12.9718 4.90606 12.8028C4.90606 12.6338 4.90606 12.4648 4.90606 12.2958C4.94067 11.569 5.10507 10.9268 5.39926 10.369C5.69345 9.81127 6.04821 9.30422 6.46354 8.84789C6.89617 8.39155 7.3288 7.96056 7.76143 7.55493C8.19407 7.13239 8.55748 6.70986 8.85167 6.28732C9.16317 5.86479 9.35352 5.4169 9.42274 4.94366C9.49197 4.33521 9.37083 3.82817 9.05933 3.42253C8.74784 3 8.32386 2.67887 7.78739 2.45916C7.25093 2.23944 6.69716 2.12958 6.12608 2.12958C5.2089 2.12958 4.42151 2.3662 3.76391 2.83944C3.12361 3.29577 2.69963 4.07324 2.49197 5.17183C2.44005 5.37465 2.35352 5.51831 2.23239 5.60282C2.11125 5.68732 1.97281 5.72958 1.81706 5.72958H0.571075C0.415328 5.72958 0.276885 5.67887 0.155748 5.57747C0.051916 5.47606 0 5.34085 0 5.17183C0.0173053 4.47887 0.173053 3.81972 0.467244 3.19437C0.761434 2.56901 1.17676 2.01972 1.71323 1.54648C2.267 1.07324 2.91595 0.701408 3.66007 0.430986C4.42151 0.143662 5.26947 0 6.20396 0C7.25958 0 8.15946 0.143662 8.90358 0.430986C9.66502 0.701408 10.2707 1.07324 10.7206 1.54648C11.1879 2.00282 11.5253 2.50986 11.733 3.06761C11.9407 3.62535 12.0272 4.1831 11.9926 4.74085C11.9407 5.4169 11.7676 6.02535 11.4734 6.5662C11.1792 7.09014 10.8245 7.58028 10.4091 8.03662C9.99382 8.47606 9.56984 8.91549 9.13721 9.35493C8.72188 9.77747 8.35847 10.2254 8.04697 10.6986C7.75278 11.1549 7.58838 11.6535 7.55377 12.1944C7.53647 12.3803 7.51916 12.5662 7.50185 12.7521C7.50185 12.9211 7.50185 13.0901 7.50185 13.2592C7.46724 13.4451 7.39802 13.5887 7.29419 13.6901C7.19036 13.7916 7.04326 13.8423 6.85291 13.8423H5.45117ZM5.24351 18C5.07046 18 4.92336 17.9493 4.80223 17.8479C4.69839 17.7296 4.64648 17.5859 4.64648 17.4169V15.8704C4.64648 15.7014 4.69839 15.5662 4.80223 15.4648C4.92336 15.3465 5.07046 15.2873 5.24351 15.2873H6.93078C7.12114 15.2873 7.26823 15.3465 7.37206 15.4648C7.4932 15.5662 7.55377 15.7014 7.55377 15.8704V17.4169C7.55377 17.5859 7.4932 17.7296 7.37206 17.8479C7.26823 17.9493 7.12114 18 6.93078 18H5.24351Z" />
  </symbol>

  <symbol viewBox="0 0 24 24" fill="none" xmlns="http://www.w3.org/2000/svg" id="loc" >
    <path d="M17.7758 16.7755L13.1852 21.3661C12.9845 21.5671 12.7461 21.7265 12.4837 21.8352C12.2213 21.944 11.94 22 11.6559 22C11.3719 22 11.0906 21.944 10.8282 21.8352C10.5658 21.7265 10.3274 21.5671 10.1266 21.3661L5.53495 16.7755C4.32452 15.565 3.50022 14.0228 3.16628 12.3438C2.83235 10.6648 3.00378 8.92455 3.6589 7.34301C4.31402 5.76147 5.4234 4.40971 6.84676 3.45866C8.27012 2.50762 9.94353 2 11.6554 2C13.3672 2 15.0407 2.50762 16.464 3.45866C17.8874 4.40971 18.9968 5.76147 19.6519 7.34301C20.307 8.92455 20.4784 10.6648 20.1445 12.3438C19.8106 14.0228 18.9863 15.565 17.7758 16.7755V16.7755Z" stroke="white" stroke-width="2" stroke-linecap="round" stroke-linejoin="round"/>
    <path d="M14.9012 10.6549C14.9012 11.5158 14.5592 12.3414 13.9505 12.9501C13.3418 13.5588 12.5163 13.9007 11.6554 13.9007C10.7946 13.9007 9.96903 13.5588 9.36033 12.9501C8.75163 12.3414 8.40967 11.5158 8.40967 10.6549C8.40967 9.79412 8.75163 8.96854 9.36033 8.35984C9.96903 7.75114 10.7946 7.40918 11.6554 7.40918C12.5163 7.40918 13.3418 7.75114 13.9505 8.35984C14.5592 8.96854 14.9012 9.79412 14.9012 10.6549V10.6549Z" stroke="white" stroke-width="2" stroke-linecap="round" stroke-linejoin="round"/>
  </symbol>

  <symbol viewBox="0 0 24 24" fill="none" xmlns="http://www.w3.org/2000/svg" id="tel" >
    <path d="M3 5C3 4.46957 3.21071 3.96086 3.58579 3.58579C3.96086 3.21071 4.46957 3 5 3H8.28C8.48979 3.00016 8.69422 3.0663 8.86436 3.18905C9.03449 3.3118 9.1617 3.48496 9.228 3.684L10.726 8.177C10.8019 8.40534 10.7929 8.65339 10.7007 8.87564C10.6085 9.0979 10.4393 9.27945 10.224 9.387L7.967 10.517C9.07332 12.9655 11.0345 14.9267 13.483 16.033L14.613 13.776C14.7205 13.5607 14.9021 13.3915 15.1244 13.2993C15.3466 13.2071 15.5947 13.1981 15.823 13.274L20.316 14.772C20.5152 14.8383 20.6885 14.9657 20.8112 15.136C20.934 15.3064 21.0001 15.511 21 15.721V19C21 19.5304 20.7893 20.0391 20.4142 20.4142C20.0391 20.7893 19.5304 21 19 21H18C9.716 21 3 14.284 3 6V5Z" stroke="white" stroke-width="2" stroke-linecap="round" stroke-linejoin="round"/>
  </symbol>

  <symbol viewBox="0 0 24 24" fill="none" xmlns="http://www.w3.org/2000/svg" id="mail" >
    <path d="M3 8L10.89 13.26C11.2187 13.4793 11.6049 13.5963 12 13.5963C12.3951 13.5963 12.7813 13.4793 13.11 13.26L21 8M5 19H19C19.5304 19 20.0391 18.7893 20.4142 18.4142C20.7893 18.0391 21 17.5304 21 17V7C21 6.46957 20.7893 5.96086 20.4142 5.58579C20.0391 5.21071 19.5304 5 19 5H5C4.46957 5 3.96086 5.21071 3.58579 5.58579C3.21071 5.96086 3 6.46957 3 7V17C3 17.5304 3.21071 18.0391 3.58579 18.4142C3.96086 18.7893 4.46957 19 5 19Z" stroke="white" stroke-width="2" stroke-linecap="round" stroke-linejoin="round"/>
  </symbol>

  <symbol viewBox="0 0 20 20" fill="none" xmlns="http://www.w3.org/2000/svg" id="at" >
    <path d="M13.3333 10V11.25C13.3333 11.8025 13.5528 12.3324 13.9435 12.7231C14.3342 13.1138 14.8641 13.3333 15.4167 13.3333C15.9692 13.3333 16.4991 13.1138 16.8898 12.7231C17.2805 12.3324 17.5 11.8025 17.5 11.25V10C17.5 8.51664 17.0601 7.0666 16.236 5.83323C15.4119 4.59986 14.2406 3.63856 12.8701 3.07091C11.4997 2.50325 9.99168 2.35472 8.53683 2.64411C7.08197 2.9335 5.7456 3.64781 4.6967 4.6967C3.64781 5.7456 2.9335 7.08197 2.64411 8.53683C2.35472 9.99168 2.50325 11.4997 3.07091 12.8701C3.63856 14.2406 4.59986 15.4119 5.83323 16.236C7.0666 17.0601 8.51664 17.5 10 17.5M13.75 16.495C12.6106 17.1551 11.3168 17.5021 10 17.5008M13.3333 10C13.3333 9.11595 12.9821 8.2681 12.357 7.64298C11.7319 7.01786 10.8841 6.66667 10 6.66667C9.11595 6.66667 8.2681 7.01786 7.64298 7.64298C7.01786 8.2681 6.66667 9.11595 6.66667 10C6.66667 10.8841 7.01786 11.7319 7.64298 12.357C8.2681 12.9821 9.11595 13.3333 10 13.3333C10.8841 13.3333 11.7319 12.9821 12.357 12.357C12.9821 11.7319 13.3333 10.8841 13.3333 10Z" stroke="white" stroke-linecap="round" stroke-linejoin="round"/>
  </symbol>

  <symbol viewBox="0 0 24 24" fill="none" xmlns="http://www.w3.org/2000/svg" id="filter" >
    <path d="M12 6V4M12 6C11.4696 6 10.9609 6.21071 10.5858 6.58579C10.2107 6.96086 10 7.46957 10 8C10 8.53043 10.2107 9.03914 10.5858 9.41421C10.9609 9.78929 11.4696 10 12 10M12 6C12.5304 6 13.0391 6.21071 13.4142 6.58579C13.7893 6.96086 14 7.46957 14 8C14 8.53043 13.7893 9.03914 13.4142 9.41421C13.0391 9.78929 12.5304 10 12 10M12 10V20M6 18C6.53043 18 7.03914 17.7893 7.41421 17.4142C7.78929 17.0391 8 16.5304 8 16C8 15.4696 7.78929 14.9609 7.41421 14.5858C7.03914 14.2107 6.53043 14 6 14M6 18C5.46957 18 4.96086 17.7893 4.58579 17.4142C4.21071 17.0391 4 16.5304 4 16C4 15.4696 4.21071 14.9609 4.58579 14.5858C4.96086 14.2107 5.46957 14 6 14M6 18V20M6 14V4M18 18C18.5304 18 19.0391 17.7893 19.4142 17.4142C19.7893 17.0391 20 16.5304 20 16C20 15.4696 19.7893 14.9609 19.4142 14.5858C19.0391 14.2107 18.5304 14 18 14M18 18C17.4696 18 16.9609 17.7893 16.5858 17.4142C16.2107 17.0391 16 16.5304 16 16C16 15.4696 16.2107 14.9609 16.5858 14.5858C16.9609 14.2107 17.4696 14 18 14M18 18V20M18 14V4" stroke="#0060E5" stroke-width="2" stroke-linecap="round" stroke-linejoin="round"/>
  </symbol>
</svg>
