<svg width="50" height="50" viewBox="0 0 50 50" fill="none" xmlns="http://www.w3.org/2000/svg">
<mask id="path-1-outside-1_408_19112" maskUnits="userSpaceOnUse" x="4.00003" y="4" width="42" height="43" fill="black">
<rect fill="white" x="4.00003" y="4" width="42" height="43"/>
<path d="M15.1261 7.38655C6.77314 9.41177 5.27734 9.79832 5.15129 9.94958C5.01684 10.1176 5.00003 10.3277 5.00003 11.7311C5.00003 13.3025 5.00003 13.3193 5.21011 13.521C5.45381 13.7731 5.61348 13.7731 6.4118 13.5714L7.01684 13.4118V21.7983H8.36138V13.1008L14.2689 11.6807C17.5126 10.8908 21.2942 9.98319 22.6723 9.64706L25.1849 9.05042L41.9748 13.1008V44.6555H37.9412V18.1765L37.7311 17.9748L37.5294 17.7647H12.8068L12.6051 17.9748C12.395 18.1765 12.395 18.1933 12.395 19.7815C12.395 21.3697 12.395 21.3866 12.6051 21.5882L12.8068 21.7983H36.5967V23.1429H19.7899V24.4874H36.5967V25.8319H19.7899V27.1765H36.5967V28.521H19.7899V29.8655H36.5967V44.6555H31.8908V46H45.3362V44.6555H43.3194V13.4118L43.9328 13.5714C44.7227 13.7731 44.8824 13.7731 45.1261 13.521C45.3362 13.3193 45.3362 13.3025 45.3362 11.7311C45.3362 10.3193 45.3194 10.1176 45.1849 9.94958C45.0589 9.78992 43.6303 9.42017 35.1597 7.37815C29.7395 6.06723 25.2185 5 25.1261 5C25.0336 5.0084 20.5378 6.07563 15.1261 7.38655ZM34.6639 8.64706C39.7731 9.88235 43.958 10.8992 43.9748 10.916C43.9916 10.9244 43.9916 11.2185 43.9748 11.563L43.9496 12.1933L38.8236 10.958C36.0084 10.2773 31.7815 9.2521 29.437 8.68908L25.1765 7.65546L15.8656 9.89916C10.7479 11.1345 6.50423 12.1597 6.45381 12.1765C6.36978 12.2017 6.34457 12.042 6.34457 11.563V10.9076L8.6807 10.3361C21.6219 7.20168 25.1429 6.36134 25.2521 6.38655C25.3194 6.39496 29.5547 7.42017 34.6639 8.64706ZM36.5967 20.4538H13.7395V19.1092H36.5967V20.4538Z"/>
<path d="M23.1513 11.8235C22.7395 11.958 22.0337 12.6806 21.9076 13.1092C21.6723 13.8991 21.8404 14.5294 22.437 15.1176C23.0169 15.6974 23.2269 15.7479 25.1849 15.7479C27.1513 15.7479 27.4202 15.6806 27.9664 15.0756C28.7227 14.2353 28.7227 13.2269 27.9664 12.3865C27.4118 11.7731 27.1597 11.7143 25.1345 11.7227C24.1597 11.7311 23.3194 11.7731 23.1513 11.8235ZM26.9748 13.2689C27.1093 13.3949 27.1849 13.5714 27.1849 13.7311C27.1849 13.8907 27.1093 14.0672 26.9748 14.1932C26.7732 14.4033 26.7563 14.4033 25.1681 14.4033C23.5799 14.4033 23.5631 14.4033 23.3614 14.1932C23.2269 14.0672 23.1513 13.8907 23.1513 13.7311C23.1513 13.5714 23.2269 13.3949 23.3614 13.2689C23.5631 13.0588 23.5799 13.0588 25.1681 13.0588C26.7563 13.0588 26.7732 13.0588 26.9748 13.2689Z"/>
<path d="M5.21011 23.3529L5.00003 23.5546V45.5882L5.21011 45.7899L5.4118 46H30.1345L30.3362 45.7899L30.5462 45.5882V34.3109L30.3362 34.1092L30.1345 33.8992H18.4454V23.5546L18.2353 23.3529L18.0336 23.1429H5.4118L5.21011 23.3529ZM9.03364 26.2941C9.03364 28.1092 9.03364 28.1092 9.24373 28.3109L9.44541 28.521H14L14.2017 28.3109C14.4118 28.1092 14.4118 28.1092 14.4118 26.2941V24.4874H17.1009V33.8992H6.34457V24.4874H9.03364V26.2941ZM13.0673 27.1765H10.3782V24.4874H13.0673V27.1765ZM9.03364 37.0504C9.03364 38.8655 9.03364 38.8655 9.24373 39.0672L9.44541 39.2773H14L14.2017 39.0672C14.4118 38.8655 14.4118 38.8655 14.4118 37.0504V35.2437H17.1009V44.6555H6.34457V35.2437H9.03364V37.0504ZM13.0673 37.9328H10.3782V35.2437H13.0673V37.9328ZM21.1345 37.0504C21.1345 38.8655 21.1345 38.8655 21.3446 39.0672L21.5462 39.2773H26.1009L26.3026 39.0672C26.5126 38.8655 26.5126 38.8655 26.5126 37.0504V35.2437H29.2017V44.6555H18.4454V35.2437H21.1345V37.0504ZM25.1681 37.9328H22.479V35.2437H25.1681V37.9328Z"/>
<path d="M14.4119 32.5546H15.7565V31.2101H14.4119V32.5546Z"/>
<path d="M14.4119 43.3109H15.7565V41.9664H14.4119V43.3109Z"/>
<path d="M26.5126 43.3109H27.8571V41.9664H26.5126V43.3109Z"/>
</mask>
<path d="M15.1261 7.38655C6.77314 9.41177 5.27734 9.79832 5.15129 9.94958C5.01684 10.1176 5.00003 10.3277 5.00003 11.7311C5.00003 13.3025 5.00003 13.3193 5.21011 13.521C5.45381 13.7731 5.61348 13.7731 6.4118 13.5714L7.01684 13.4118V21.7983H8.36138V13.1008L14.2689 11.6807C17.5126 10.8908 21.2942 9.98319 22.6723 9.64706L25.1849 9.05042L41.9748 13.1008V44.6555H37.9412V18.1765L37.7311 17.9748L37.5294 17.7647H12.8068L12.6051 17.9748C12.395 18.1765 12.395 18.1933 12.395 19.7815C12.395 21.3697 12.395 21.3866 12.6051 21.5882L12.8068 21.7983H36.5967V23.1429H19.7899V24.4874H36.5967V25.8319H19.7899V27.1765H36.5967V28.521H19.7899V29.8655H36.5967V44.6555H31.8908V46H45.3362V44.6555H43.3194V13.4118L43.9328 13.5714C44.7227 13.7731 44.8824 13.7731 45.1261 13.521C45.3362 13.3193 45.3362 13.3025 45.3362 11.7311C45.3362 10.3193 45.3194 10.1176 45.1849 9.94958C45.0589 9.78992 43.6303 9.42017 35.1597 7.37815C29.7395 6.06723 25.2185 5 25.1261 5C25.0336 5.0084 20.5378 6.07563 15.1261 7.38655ZM34.6639 8.64706C39.7731 9.88235 43.958 10.8992 43.9748 10.916C43.9916 10.9244 43.9916 11.2185 43.9748 11.563L43.9496 12.1933L38.8236 10.958C36.0084 10.2773 31.7815 9.2521 29.437 8.68908L25.1765 7.65546L15.8656 9.89916C10.7479 11.1345 6.50423 12.1597 6.45381 12.1765C6.36978 12.2017 6.34457 12.042 6.34457 11.563V10.9076L8.6807 10.3361C21.6219 7.20168 25.1429 6.36134 25.2521 6.38655C25.3194 6.39496 29.5547 7.42017 34.6639 8.64706ZM36.5967 20.4538H13.7395V19.1092H36.5967V20.4538Z" fill="white"/>
<path d="M23.1513 11.8235C22.7395 11.958 22.0337 12.6806 21.9076 13.1092C21.6723 13.8991 21.8404 14.5294 22.437 15.1176C23.0169 15.6974 23.2269 15.7479 25.1849 15.7479C27.1513 15.7479 27.4202 15.6806 27.9664 15.0756C28.7227 14.2353 28.7227 13.2269 27.9664 12.3865C27.4118 11.7731 27.1597 11.7143 25.1345 11.7227C24.1597 11.7311 23.3194 11.7731 23.1513 11.8235ZM26.9748 13.2689C27.1093 13.3949 27.1849 13.5714 27.1849 13.7311C27.1849 13.8907 27.1093 14.0672 26.9748 14.1932C26.7732 14.4033 26.7563 14.4033 25.1681 14.4033C23.5799 14.4033 23.5631 14.4033 23.3614 14.1932C23.2269 14.0672 23.1513 13.8907 23.1513 13.7311C23.1513 13.5714 23.2269 13.3949 23.3614 13.2689C23.5631 13.0588 23.5799 13.0588 25.1681 13.0588C26.7563 13.0588 26.7732 13.0588 26.9748 13.2689Z" fill="white"/>
<path d="M5.21011 23.3529L5.00003 23.5546V45.5882L5.21011 45.7899L5.4118 46H30.1345L30.3362 45.7899L30.5462 45.5882V34.3109L30.3362 34.1092L30.1345 33.8992H18.4454V23.5546L18.2353 23.3529L18.0336 23.1429H5.4118L5.21011 23.3529ZM9.03364 26.2941C9.03364 28.1092 9.03364 28.1092 9.24373 28.3109L9.44541 28.521H14L14.2017 28.3109C14.4118 28.1092 14.4118 28.1092 14.4118 26.2941V24.4874H17.1009V33.8992H6.34457V24.4874H9.03364V26.2941ZM13.0673 27.1765H10.3782V24.4874H13.0673V27.1765ZM9.03364 37.0504C9.03364 38.8655 9.03364 38.8655 9.24373 39.0672L9.44541 39.2773H14L14.2017 39.0672C14.4118 38.8655 14.4118 38.8655 14.4118 37.0504V35.2437H17.1009V44.6555H6.34457V35.2437H9.03364V37.0504ZM13.0673 37.9328H10.3782V35.2437H13.0673V37.9328ZM21.1345 37.0504C21.1345 38.8655 21.1345 38.8655 21.3446 39.0672L21.5462 39.2773H26.1009L26.3026 39.0672C26.5126 38.8655 26.5126 38.8655 26.5126 37.0504V35.2437H29.2017V44.6555H18.4454V35.2437H21.1345V37.0504ZM25.1681 37.9328H22.479V35.2437H25.1681V37.9328Z" fill="white"/>
<path d="M14.4119 32.5546H15.7565V31.2101H14.4119V32.5546Z" fill="white"/>
<path d="M14.4119 43.3109H15.7565V41.9664H14.4119V43.3109Z" fill="white"/>
<path d="M26.5126 43.3109H27.8571V41.9664H26.5126V43.3109Z" fill="white"/>
<path d="M15.1261 7.38655C6.77314 9.41177 5.27734 9.79832 5.15129 9.94958C5.01684 10.1176 5.00003 10.3277 5.00003 11.7311C5.00003 13.3025 5.00003 13.3193 5.21011 13.521C5.45381 13.7731 5.61348 13.7731 6.4118 13.5714L7.01684 13.4118V21.7983H8.36138V13.1008L14.2689 11.6807C17.5126 10.8908 21.2942 9.98319 22.6723 9.64706L25.1849 9.05042L41.9748 13.1008V44.6555H37.9412V18.1765L37.7311 17.9748L37.5294 17.7647H12.8068L12.6051 17.9748C12.395 18.1765 12.395 18.1933 12.395 19.7815C12.395 21.3697 12.395 21.3866 12.6051 21.5882L12.8068 21.7983H36.5967V23.1429H19.7899V24.4874H36.5967V25.8319H19.7899V27.1765H36.5967V28.521H19.7899V29.8655H36.5967V44.6555H31.8908V46H45.3362V44.6555H43.3194V13.4118L43.9328 13.5714C44.7227 13.7731 44.8824 13.7731 45.1261 13.521C45.3362 13.3193 45.3362 13.3025 45.3362 11.7311C45.3362 10.3193 45.3194 10.1176 45.1849 9.94958C45.0589 9.78992 43.6303 9.42017 35.1597 7.37815C29.7395 6.06723 25.2185 5 25.1261 5C25.0336 5.0084 20.5378 6.07563 15.1261 7.38655ZM34.6639 8.64706C39.7731 9.88235 43.958 10.8992 43.9748 10.916C43.9916 10.9244 43.9916 11.2185 43.9748 11.563L43.9496 12.1933L38.8236 10.958C36.0084 10.2773 31.7815 9.2521 29.437 8.68908L25.1765 7.65546L15.8656 9.89916C10.7479 11.1345 6.50423 12.1597 6.45381 12.1765C6.36978 12.2017 6.34457 12.042 6.34457 11.563V10.9076L8.6807 10.3361C21.6219 7.20168 25.1429 6.36134 25.2521 6.38655C25.3194 6.39496 29.5547 7.42017 34.6639 8.64706ZM36.5967 20.4538H13.7395V19.1092H36.5967V20.4538Z" stroke="white" stroke-width="0.2" mask="url(#path-1-outside-1_408_19112)"/>
<path d="M23.1513 11.8235C22.7395 11.958 22.0337 12.6806 21.9076 13.1092C21.6723 13.8991 21.8404 14.5294 22.437 15.1176C23.0169 15.6974 23.2269 15.7479 25.1849 15.7479C27.1513 15.7479 27.4202 15.6806 27.9664 15.0756C28.7227 14.2353 28.7227 13.2269 27.9664 12.3865C27.4118 11.7731 27.1597 11.7143 25.1345 11.7227C24.1597 11.7311 23.3194 11.7731 23.1513 11.8235ZM26.9748 13.2689C27.1093 13.3949 27.1849 13.5714 27.1849 13.7311C27.1849 13.8907 27.1093 14.0672 26.9748 14.1932C26.7732 14.4033 26.7563 14.4033 25.1681 14.4033C23.5799 14.4033 23.5631 14.4033 23.3614 14.1932C23.2269 14.0672 23.1513 13.8907 23.1513 13.7311C23.1513 13.5714 23.2269 13.3949 23.3614 13.2689C23.5631 13.0588 23.5799 13.0588 25.1681 13.0588C26.7563 13.0588 26.7732 13.0588 26.9748 13.2689Z" stroke="white" stroke-width="0.2" mask="url(#path-1-outside-1_408_19112)"/>
<path d="M5.21011 23.3529L5.00003 23.5546V45.5882L5.21011 45.7899L5.4118 46H30.1345L30.3362 45.7899L30.5462 45.5882V34.3109L30.3362 34.1092L30.1345 33.8992H18.4454V23.5546L18.2353 23.3529L18.0336 23.1429H5.4118L5.21011 23.3529ZM9.03364 26.2941C9.03364 28.1092 9.03364 28.1092 9.24373 28.3109L9.44541 28.521H14L14.2017 28.3109C14.4118 28.1092 14.4118 28.1092 14.4118 26.2941V24.4874H17.1009V33.8992H6.34457V24.4874H9.03364V26.2941ZM13.0673 27.1765H10.3782V24.4874H13.0673V27.1765ZM9.03364 37.0504C9.03364 38.8655 9.03364 38.8655 9.24373 39.0672L9.44541 39.2773H14L14.2017 39.0672C14.4118 38.8655 14.4118 38.8655 14.4118 37.0504V35.2437H17.1009V44.6555H6.34457V35.2437H9.03364V37.0504ZM13.0673 37.9328H10.3782V35.2437H13.0673V37.9328ZM21.1345 37.0504C21.1345 38.8655 21.1345 38.8655 21.3446 39.0672L21.5462 39.2773H26.1009L26.3026 39.0672C26.5126 38.8655 26.5126 38.8655 26.5126 37.0504V35.2437H29.2017V44.6555H18.4454V35.2437H21.1345V37.0504ZM25.1681 37.9328H22.479V35.2437H25.1681V37.9328Z" stroke="white" stroke-width="0.2" mask="url(#path-1-outside-1_408_19112)"/>
<path d="M14.4119 32.5546H15.7565V31.2101H14.4119V32.5546Z" stroke="white" stroke-width="0.2" mask="url(#path-1-outside-1_408_19112)"/>
<path d="M14.4119 43.3109H15.7565V41.9664H14.4119V43.3109Z" stroke="white" stroke-width="0.2" mask="url(#path-1-outside-1_408_19112)"/>
<path d="M26.5126 43.3109H27.8571V41.9664H26.5126V43.3109Z" stroke="white" stroke-width="0.2" mask="url(#path-1-outside-1_408_19112)"/>
</svg>
