<svg width="681" height="182" viewBox="0 0 681 182" fill="none" xmlns="http://www.w3.org/2000/svg">
<path d="M199.455 145.328C198.834 145.328 198.327 145.13 197.932 144.736C197.537 144.341 197.34 143.833 197.34 143.213V88.2208C197.34 87.6004 197.537 87.0928 197.932 86.698C198.327 86.3032 198.834 86.1058 199.455 86.1058H245.056C245.676 86.1058 246.184 86.3032 246.579 86.698C246.973 87.0928 247.171 87.6004 247.171 88.2208V143.213C247.171 143.833 246.973 144.341 246.579 144.736C246.184 145.13 245.676 145.328 245.056 145.328H235.834C235.214 145.328 234.706 145.13 234.311 144.736C233.916 144.341 233.719 143.833 233.719 143.213V98.1194H210.792V143.213C210.792 143.833 210.594 144.341 210.199 144.736C209.805 145.13 209.297 145.328 208.677 145.328H199.455Z" fill="#000AFF"/>
<path d="M261.833 145.328C261.213 145.328 260.705 145.13 260.31 144.736C259.915 144.341 259.718 143.833 259.718 143.213V88.2208C259.718 87.6004 259.915 87.0928 260.31 86.698C260.705 86.3032 261.213 86.1058 261.833 86.1058H284.93C289.498 86.1058 293.446 86.8108 296.774 88.2208C300.158 89.6309 302.781 91.7742 304.642 94.6507C306.56 97.4708 307.519 100.996 307.519 105.226C307.519 109.513 306.56 113.066 304.642 115.886C302.781 118.65 300.158 120.708 296.774 122.062C293.446 123.416 289.498 124.092 284.93 124.092H273.593V143.213C273.593 143.833 273.395 144.341 273.001 144.736C272.606 145.13 272.098 145.328 271.478 145.328H261.833ZM273.339 113.602H284.507C287.383 113.602 289.611 112.897 291.19 111.487C292.826 110.077 293.644 107.962 293.644 105.141C293.644 102.66 292.91 100.629 291.444 99.05C290.034 97.4708 287.721 96.6811 284.507 96.6811H273.339V113.602Z" fill="#000AFF"/>
<path d="M339.667 146.174C334.534 146.174 330.107 145.328 326.384 143.636C322.662 141.944 319.757 139.406 317.67 136.021C315.583 132.581 314.455 128.266 314.286 123.077C314.23 120.652 314.201 118.255 314.201 115.886C314.201 113.461 314.23 111.007 314.286 108.526C314.455 103.449 315.583 99.191 317.67 95.7505C319.813 92.2536 322.746 89.6309 326.469 87.8824C330.248 86.134 334.647 85.2597 339.667 85.2597C344.63 85.2597 348.973 86.134 352.696 87.8824C356.475 89.6309 359.436 92.2536 361.579 95.7505C363.722 99.191 364.85 103.449 364.963 108.526C365.076 111.007 365.132 113.461 365.132 115.886C365.132 118.255 365.076 120.652 364.963 123.077C364.794 128.266 363.666 132.581 361.579 136.021C359.492 139.406 356.587 141.944 352.865 143.636C349.142 145.328 344.743 146.174 339.667 146.174ZM339.667 135.26C342.938 135.26 345.617 134.273 347.704 132.299C349.847 130.268 350.976 127.054 351.088 122.654C351.201 120.173 351.258 117.86 351.258 115.717C351.258 113.517 351.201 111.205 351.088 108.779C351.032 105.846 350.496 103.449 349.481 101.588C348.466 99.7268 347.112 98.3732 345.42 97.5272C343.784 96.6247 341.867 96.1735 339.667 96.1735C337.467 96.1735 335.521 96.6247 333.829 97.5272C332.137 98.3732 330.784 99.7268 329.768 101.588C328.81 103.449 328.274 105.846 328.161 108.779C328.105 111.205 328.076 113.517 328.076 115.717C328.076 117.86 328.105 120.173 328.161 122.654C328.33 127.054 329.458 130.268 331.545 132.299C333.632 134.273 336.339 135.26 339.667 135.26Z" fill="#000AFF"/>
<path d="M403.214 148.035C402.594 148.035 402.086 147.838 401.691 147.443C401.297 147.048 401.099 146.54 401.099 145.92V139.913C392.695 139.913 386.181 138.052 381.556 134.329C376.987 130.607 374.393 125.051 373.772 117.663C373.716 117.155 373.688 116.506 373.688 115.717C373.688 114.927 373.688 114.138 373.688 113.348C373.744 112.502 373.772 111.853 373.772 111.402C374.054 106.495 375.324 102.406 377.58 99.1346C379.836 95.8069 382.966 93.297 386.971 91.605C391.031 89.8565 395.741 88.9823 401.099 88.9823V83.9061C401.099 83.3421 401.297 82.8627 401.691 82.4678C402.086 82.0166 402.594 81.791 403.214 81.791H412.521C413.085 81.791 413.564 82.0166 413.959 82.4678C414.354 82.8627 414.551 83.3421 414.551 83.9061V88.9823C419.966 88.9823 424.675 89.8565 428.68 91.605C432.684 93.297 435.843 95.8069 438.155 99.1346C440.468 102.406 441.737 106.495 441.962 111.402C442.019 112.643 442.047 113.686 442.047 114.532C442.103 115.322 442.075 116.365 441.962 117.663C441.398 125.051 438.804 130.607 434.179 134.329C429.554 138.052 423.011 139.913 414.551 139.913V145.92C414.551 146.54 414.354 147.048 413.959 147.443C413.564 147.838 413.085 148.035 412.521 148.035H403.214ZM401.184 128.999V99.896C397.066 99.896 393.852 100.855 391.539 102.773C389.227 104.634 387.901 107.623 387.563 111.74C387.563 112.643 387.563 113.545 387.563 114.448C387.563 115.294 387.563 116.196 387.563 117.155C387.788 121.272 389.057 124.29 391.37 126.208C393.739 128.069 397.01 128.999 401.184 128.999ZM414.466 128.999C418.697 128.999 421.968 128.069 424.28 126.208C426.649 124.29 427.918 121.272 428.088 117.155C428.144 116.704 428.172 116.14 428.172 115.463C428.172 114.786 428.172 114.109 428.172 113.433C428.172 112.699 428.144 112.135 428.088 111.74C427.749 107.623 426.424 104.634 424.111 102.773C421.855 100.855 418.64 99.896 414.466 99.896V128.999Z" fill="#000AFF"/>
<path d="M476.155 146.174C470.853 146.174 466.341 145.3 462.619 143.551C458.953 141.746 456.104 139.152 454.074 135.768C452.043 132.327 450.915 128.153 450.69 123.246C450.633 120.934 450.605 118.452 450.605 115.801C450.605 113.15 450.633 110.612 450.69 108.187C450.915 103.337 452.043 99.2192 454.074 95.8351C456.161 92.3946 459.065 89.7719 462.788 87.967C466.51 86.1622 470.966 85.2597 476.155 85.2597C479.934 85.2597 483.375 85.7392 486.477 86.698C489.579 87.6568 492.258 89.0387 494.514 90.8435C496.77 92.6484 498.519 94.7635 499.759 97.1887C501 99.614 501.677 102.321 501.79 105.311C501.79 105.818 501.592 106.241 501.198 106.58C500.859 106.918 500.436 107.087 499.929 107.087H490.284C489.607 107.087 489.071 106.918 488.676 106.58C488.282 106.241 487.971 105.677 487.746 104.888C486.9 101.56 485.49 99.2756 483.516 98.0348C481.542 96.7939 479.088 96.1735 476.155 96.1735C472.658 96.1735 469.895 97.1323 467.864 99.05C465.834 100.968 464.734 104.154 464.565 108.61C464.395 113.235 464.395 117.973 464.565 122.823C464.734 127.279 465.834 130.466 467.864 132.384C469.895 134.301 472.658 135.26 476.155 135.26C479.088 135.26 481.542 134.64 483.516 133.399C485.546 132.102 486.956 129.817 487.746 126.546C487.971 125.7 488.282 125.136 488.676 124.854C489.071 124.515 489.607 124.346 490.284 124.346H499.929C500.436 124.346 500.859 124.515 501.198 124.854C501.592 125.192 501.79 125.615 501.79 126.123C501.677 129.112 501 131.82 499.759 134.245C498.519 136.67 496.77 138.785 494.514 140.59C492.258 142.395 489.579 143.777 486.477 144.736C483.375 145.694 479.934 146.174 476.155 146.174Z" fill="#000AFF"/>
<path d="M513.411 145.328C512.79 145.328 512.283 145.13 511.888 144.736C511.493 144.341 511.296 143.833 511.296 143.213V88.2208C511.296 87.6004 511.493 87.0928 511.888 86.698C512.283 86.3032 512.79 86.1058 513.411 86.1058H522.633C523.253 86.1058 523.761 86.3032 524.155 86.698C524.55 87.0928 524.748 87.6004 524.748 88.2208V109.372H547.675V88.2208C547.675 87.6004 547.872 87.0928 548.267 86.698C548.662 86.3032 549.17 86.1058 549.79 86.1058H559.012C559.632 86.1058 560.14 86.3032 560.535 86.698C560.929 87.0928 561.127 87.6004 561.127 88.2208V143.213C561.127 143.833 560.929 144.341 560.535 144.736C560.14 145.13 559.632 145.328 559.012 145.328H549.79C549.17 145.328 548.662 145.13 548.267 144.736C547.872 144.341 547.675 143.833 547.675 143.213V121.385H524.748V143.213C524.748 143.833 524.55 144.341 524.155 144.736C523.761 145.13 523.253 145.328 522.633 145.328H513.411Z" fill="#000AFF"/>
<path d="M570.205 145.328C569.698 145.328 569.275 145.159 568.936 144.82C568.598 144.425 568.428 144.002 568.428 143.551C568.428 143.269 568.457 143.015 568.513 142.79L588.649 88.39C588.818 87.7696 589.156 87.2338 589.664 86.7826C590.171 86.3314 590.876 86.1058 591.779 86.1058H602.608C603.511 86.1058 604.216 86.3314 604.723 86.7826C605.231 87.2338 605.569 87.7696 605.738 88.39L625.874 142.79C625.93 143.015 625.958 143.269 625.958 143.551C625.958 144.002 625.789 144.425 625.451 144.82C625.112 145.159 624.689 145.328 624.182 145.328H615.383C614.537 145.328 613.917 145.13 613.522 144.736C613.127 144.341 612.873 143.974 612.76 143.636L609.122 134.16H585.264L581.627 143.636C581.514 143.974 581.26 144.341 580.865 144.736C580.47 145.13 579.85 145.328 579.004 145.328H570.205ZM588.395 123.246H605.908L597.193 98.8808L588.395 123.246Z" fill="#000AFF"/>
<path d="M635.358 145.328C634.738 145.328 634.23 145.13 633.835 144.736C633.44 144.341 633.243 143.833 633.243 143.213V88.2208C633.243 87.6004 633.44 87.0928 633.835 86.698C634.23 86.3032 634.738 86.1058 635.358 86.1058H674.952C675.573 86.1058 676.08 86.3032 676.475 86.698C676.87 87.0928 677.067 87.6004 677.067 88.2208V95.4121C677.067 95.9761 676.87 96.4555 676.475 96.8503C676.08 97.2451 675.573 97.4426 674.952 97.4426H646.695V109.287H659.808C666.351 109.287 671.483 110.894 675.206 114.109C678.985 117.324 680.874 121.667 680.874 127.138C680.874 129.563 680.395 131.876 679.436 134.076C678.534 136.275 677.208 138.221 675.46 139.913C673.711 141.605 671.512 142.931 668.861 143.89C666.266 144.848 663.249 145.328 659.808 145.328H635.358ZM646.695 135.429H658.539C660.344 135.429 661.867 135.034 663.108 134.245C664.405 133.455 665.364 132.412 665.984 131.115C666.661 129.817 666.999 128.435 666.999 126.969C666.999 124.713 666.266 122.823 664.8 121.301C663.39 119.778 661.303 119.016 658.539 119.016H646.695V135.429Z" fill="#000AFF"/>
<path d="M199.141 158.904V178.266H197.788V157.669H206.939V178.266H205.556V158.904H199.141Z" fill="#000AFF"/>
<path d="M221.846 157.669C223.435 157.669 224.563 158.13 225.23 159.052C225.917 159.954 226.26 161.16 226.26 162.671V164.907C226.26 166.555 225.878 167.781 225.113 168.585C224.347 169.39 223.141 169.792 221.493 169.792H218.933V178.266H217.58V157.669H221.846ZM221.493 168.556C222.69 168.556 223.553 168.281 224.083 167.732C224.632 167.163 224.907 166.251 224.907 164.995V162.583C224.907 161.464 224.681 160.572 224.23 159.905C223.798 159.238 223.004 158.904 221.846 158.904H218.933V168.556H221.493Z" fill="#000AFF"/>
<path d="M236.508 162.7C236.508 161.955 236.596 161.268 236.772 160.641C236.949 159.993 237.214 159.444 237.567 158.993C237.94 158.522 238.41 158.159 238.979 157.904C239.548 157.629 240.225 157.492 241.01 157.492C241.794 157.492 242.471 157.629 243.04 157.904C243.628 158.159 244.109 158.522 244.482 158.993C244.854 159.444 245.129 159.993 245.306 160.641C245.482 161.268 245.57 161.955 245.57 162.7V173.234C245.57 173.98 245.482 174.676 245.306 175.324C245.129 175.951 244.854 176.501 244.482 176.971C244.109 177.423 243.628 177.785 243.04 178.06C242.471 178.315 241.794 178.443 241.01 178.443C240.225 178.443 239.548 178.315 238.979 178.06C238.41 177.785 237.94 177.423 237.567 176.971C237.214 176.501 236.949 175.951 236.772 175.324C236.596 174.676 236.508 173.98 236.508 173.234V162.7ZM237.861 173.323C237.861 174.441 238.096 175.373 238.567 176.118C239.058 176.844 239.872 177.207 241.01 177.207C242.147 177.207 242.961 176.844 243.452 176.118C243.962 175.373 244.217 174.441 244.217 173.323V162.612C244.217 161.494 243.962 160.572 243.452 159.846C242.961 159.101 242.147 158.728 241.01 158.728C239.872 158.728 239.058 159.101 238.567 159.846C238.096 160.572 237.861 161.494 237.861 162.612V173.323Z" fill="#000AFF"/>
<path d="M260.926 168.703L257.572 178.266H256.1V157.669H257.336V175.294L259.72 168.497L263.663 157.669H265.281V178.266H264.045V160.052L260.926 168.703Z" fill="#000AFF"/>
<path d="M280.277 157.492C281.061 157.492 281.728 157.629 282.277 157.904C282.846 158.159 283.307 158.522 283.66 158.993C284.033 159.444 284.298 159.993 284.455 160.641C284.631 161.268 284.72 161.955 284.72 162.7V163.23C284.72 164.25 284.475 165.143 283.984 165.908C283.513 166.653 282.827 167.173 281.924 167.467C282.866 167.742 283.562 168.262 284.014 169.027C284.484 169.772 284.72 170.645 284.72 171.645V173.234C284.72 173.98 284.631 174.676 284.455 175.324C284.298 175.951 284.033 176.501 283.66 176.971C283.307 177.423 282.846 177.785 282.277 178.06C281.728 178.315 281.061 178.443 280.277 178.443C279.492 178.443 278.815 178.315 278.246 178.06C277.697 177.785 277.236 177.423 276.863 176.971C276.51 176.501 276.245 175.951 276.069 175.324C275.912 174.676 275.833 173.98 275.833 173.234V171.528H277.128V173.323C277.128 173.872 277.177 174.382 277.275 174.853C277.393 175.324 277.579 175.735 277.834 176.089C278.089 176.442 278.413 176.716 278.805 176.912C279.198 177.109 279.678 177.207 280.247 177.207C281.385 177.207 282.189 176.834 282.66 176.089C283.131 175.343 283.366 174.382 283.366 173.205V171.616C283.366 170.557 283.082 169.713 282.513 169.085C281.964 168.458 281.189 168.144 280.188 168.144H279.041V166.908H280.277C281.199 166.908 281.944 166.584 282.513 165.937C283.082 165.27 283.366 164.456 283.366 163.495V162.73C283.366 161.553 283.131 160.591 282.66 159.846C282.189 159.101 281.385 158.728 280.247 158.728C279.109 158.728 278.295 159.101 277.805 159.846C277.334 160.572 277.099 161.494 277.099 162.612V163.73H275.863V162.671C275.863 161.925 275.941 161.239 276.098 160.611C276.275 159.983 276.54 159.444 276.893 158.993C277.246 158.522 277.697 158.159 278.246 157.904C278.815 157.629 279.492 157.492 280.277 157.492Z" fill="#000AFF"/>
<path d="M299.636 157.669C301.186 157.669 302.275 158.041 302.902 158.787C303.53 159.532 303.844 160.621 303.844 162.053V163.23C303.844 164.348 303.648 165.25 303.255 165.937C302.883 166.624 302.176 167.075 301.137 167.291C302.255 167.506 303.049 168.007 303.52 168.791C303.991 169.556 304.226 170.527 304.226 171.704V173.499C304.226 174.99 303.873 176.157 303.167 177.001C302.461 177.844 301.313 178.266 299.724 178.266H295.311V157.669H299.636ZM298.959 166.761C299.567 166.761 300.087 166.712 300.519 166.614C300.97 166.516 301.343 166.349 301.637 166.114C301.931 165.859 302.147 165.525 302.284 165.113C302.422 164.682 302.49 164.142 302.49 163.495V162.171C302.49 161.092 302.284 160.278 301.872 159.728C301.46 159.179 300.705 158.904 299.607 158.904H296.664V166.761H298.959ZM299.724 177.03C300.862 177.03 301.666 176.726 302.137 176.118C302.628 175.51 302.873 174.627 302.873 173.47V171.616C302.873 170.282 302.569 169.35 301.961 168.821C301.353 168.271 300.44 167.997 299.224 167.997H296.664V177.03H299.724Z" fill="#000AFF"/>
<path d="M314.641 162.7C314.641 161.955 314.729 161.268 314.906 160.641C315.082 159.993 315.347 159.444 315.7 158.993C316.073 158.522 316.544 158.159 317.112 157.904C317.681 157.629 318.358 157.492 319.143 157.492C319.927 157.492 320.604 157.629 321.173 157.904C321.762 158.159 322.242 158.522 322.615 158.993C322.988 159.444 323.262 159.993 323.439 160.641C323.615 161.268 323.704 161.955 323.704 162.7V173.234C323.704 173.98 323.615 174.676 323.439 175.324C323.262 175.951 322.988 176.501 322.615 176.971C322.242 177.423 321.762 177.785 321.173 178.06C320.604 178.315 319.927 178.443 319.143 178.443C318.358 178.443 317.681 178.315 317.112 178.06C316.544 177.785 316.073 177.423 315.7 176.971C315.347 176.501 315.082 175.951 314.906 175.324C314.729 174.676 314.641 173.98 314.641 173.234V162.7ZM315.994 173.323C315.994 174.441 316.23 175.373 316.7 176.118C317.191 176.844 318.005 177.207 319.143 177.207C320.28 177.207 321.095 176.844 321.585 176.118C322.095 175.373 322.35 174.441 322.35 173.323V162.612C322.35 161.494 322.095 160.572 321.585 159.846C321.095 159.101 320.28 158.728 319.143 158.728C318.005 158.728 317.191 159.101 316.7 159.846C316.23 160.572 315.994 161.494 315.994 162.612V173.323Z" fill="#000AFF"/>
<path d="M345.121 181.12V178.266H335.293V181.12H333.969V177.03H335.381C335.793 176.599 336.058 176.108 336.176 175.559C336.293 175.01 336.372 174.402 336.411 173.735L337.235 157.669H344.768V177.03H346.474V181.12H345.121ZM337.735 173.735C337.696 174.441 337.617 175.069 337.5 175.618C337.402 176.147 337.156 176.618 336.764 177.03H343.385V158.904H338.5L337.735 173.735Z" fill="#000AFF"/>
<path d="M361.283 157.492C362.067 157.492 362.734 157.629 363.283 157.904C363.852 158.159 364.313 158.522 364.666 158.993C365.039 159.444 365.304 159.993 365.461 160.641C365.637 161.268 365.726 161.955 365.726 162.7V164.407H364.431V162.612C364.431 162.063 364.372 161.553 364.254 161.082C364.156 160.611 363.98 160.199 363.725 159.846C363.47 159.493 363.146 159.218 362.754 159.022C362.361 158.826 361.881 158.728 361.312 158.728C360.743 158.728 360.263 158.826 359.87 159.022C359.478 159.218 359.154 159.493 358.899 159.846C358.644 160.199 358.458 160.611 358.34 161.082C358.242 161.553 358.193 162.063 358.193 162.612V173.323C358.193 173.872 358.242 174.382 358.34 174.853C358.458 175.324 358.644 175.735 358.899 176.089C359.154 176.422 359.478 176.687 359.87 176.883C360.263 177.079 360.743 177.177 361.312 177.177C361.881 177.177 362.361 177.079 362.754 176.883C363.146 176.687 363.47 176.422 363.725 176.089C363.98 175.735 364.156 175.324 364.254 174.853C364.372 174.382 364.431 173.872 364.431 173.323V170.88H365.726V173.234C365.726 173.98 365.637 174.676 365.461 175.324C365.304 175.951 365.039 176.501 364.666 176.971C364.313 177.423 363.852 177.785 363.283 178.06C362.734 178.315 362.067 178.443 361.283 178.443C360.498 178.443 359.821 178.315 359.252 178.06C358.703 177.785 358.242 177.423 357.869 176.971C357.516 176.501 357.251 175.951 357.075 175.324C356.918 174.676 356.839 173.98 356.839 173.234V162.7C356.839 161.955 356.918 161.268 357.075 160.641C357.251 159.993 357.516 159.444 357.869 158.993C358.242 158.522 358.703 158.159 359.252 157.904C359.821 157.629 360.498 157.492 361.283 157.492Z" fill="#000AFF"/>
<path d="M380.086 178.266V158.904H375.878V157.669H385.647V158.904H381.439V178.266H380.086Z" fill="#000AFF"/>
<path d="M400.262 157.669C401.812 157.669 402.901 158.041 403.528 158.787C404.156 159.532 404.47 160.621 404.47 162.053V163.23C404.47 164.348 404.274 165.25 403.882 165.937C403.509 166.624 402.803 167.075 401.763 167.291C402.881 167.506 403.676 168.007 404.146 168.791C404.617 169.556 404.853 170.527 404.853 171.704V173.499C404.853 174.99 404.499 176.157 403.793 177.001C403.087 177.844 401.939 178.266 400.351 178.266H395.937V157.669H400.262ZM399.585 166.761C400.194 166.761 400.713 166.712 401.145 166.614C401.596 166.516 401.969 166.349 402.263 166.114C402.557 165.859 402.773 165.525 402.91 165.113C403.048 164.682 403.116 164.142 403.116 163.495V162.171C403.116 161.092 402.91 160.278 402.499 159.728C402.087 159.179 401.331 158.904 400.233 158.904H397.29V166.761H399.585ZM400.351 177.03C401.488 177.03 402.293 176.726 402.763 176.118C403.254 175.51 403.499 174.627 403.499 173.47V171.616C403.499 170.282 403.195 169.35 402.587 168.821C401.979 168.271 401.067 167.997 399.85 167.997H397.29V177.03H400.351Z" fill="#000AFF"/>
<path d="M422.329 167.202V168.438H416.709V177.03H423.476V178.266H415.355V157.669H423.476V158.904H416.709V167.202H422.329Z" fill="#000AFF"/>
<path d="M435.322 168.585V178.266H433.969V157.669H435.322V167.349H441.737V157.669H443.12V178.266H441.737V168.585H435.322Z" fill="#000AFF"/>
<path d="M455.114 168.585V178.266H453.761V157.669H455.114V167.349H461.529V157.669H462.912V178.266H461.529V168.585H455.114Z" fill="#000AFF"/>
<path d="M475.524 173.705L474.494 178.266H473.258L477.76 157.639H479.732L484.322 178.266H482.969L481.939 173.705H475.524ZM475.73 172.528H481.733L478.702 159.199L475.73 172.528Z" fill="#000AFF"/>
<path d="M500.169 169.056C499.58 169.056 499.051 169.115 498.58 169.233C498.109 169.331 497.697 169.517 497.344 169.792C497.011 170.047 496.756 170.4 496.579 170.851C496.403 171.302 496.314 171.871 496.314 172.558V175.794C496.314 176.363 496.285 176.844 496.226 177.236C496.167 177.609 496.049 177.952 495.873 178.266H494.46C494.676 177.933 494.814 177.55 494.872 177.118C494.931 176.667 494.961 176.226 494.961 175.794V172.587C494.961 171.469 495.186 170.547 495.637 169.821C496.108 169.095 496.873 168.615 497.933 168.379C495.951 167.928 494.961 166.506 494.961 164.113V162.318C494.961 160.866 495.304 159.728 495.991 158.904C496.677 158.081 497.805 157.669 499.374 157.669H503.67V178.266H502.317V169.056H500.169ZM499.404 158.904C498.286 158.904 497.491 159.218 497.02 159.846C496.55 160.454 496.314 161.317 496.314 162.435V164.377C496.314 165.064 496.403 165.633 496.579 166.084C496.756 166.535 497.001 166.888 497.315 167.143C497.648 167.398 498.05 167.575 498.521 167.673C498.992 167.771 499.531 167.82 500.139 167.82H502.317V158.904H499.404Z" fill="#000AFF"/>
<path d="M529.947 168.585L528.535 170.822V178.266H527.181V157.669H528.535V168.556L535.244 157.669H536.656L530.771 167.261L537.039 178.266H535.626L529.947 168.585Z" fill="#000AFF"/>
<path d="M547.287 162.7C547.287 161.955 547.376 161.268 547.552 160.641C547.729 159.993 547.994 159.444 548.347 158.993C548.719 158.522 549.19 158.159 549.759 157.904C550.328 157.629 551.005 157.492 551.789 157.492C552.574 157.492 553.251 157.629 553.82 157.904C554.408 158.159 554.889 158.522 555.261 158.993C555.634 159.444 555.909 159.993 556.085 160.641C556.262 161.268 556.35 161.955 556.35 162.7V173.234C556.35 173.98 556.262 174.676 556.085 175.324C555.909 175.951 555.634 176.501 555.261 176.971C554.889 177.423 554.408 177.785 553.82 178.06C553.251 178.315 552.574 178.443 551.789 178.443C551.005 178.443 550.328 178.315 549.759 178.06C549.19 177.785 548.719 177.423 548.347 176.971C547.994 176.501 547.729 175.951 547.552 175.324C547.376 174.676 547.287 173.98 547.287 173.234V162.7ZM548.641 173.323C548.641 174.441 548.876 175.373 549.347 176.118C549.837 176.844 550.652 177.207 551.789 177.207C552.927 177.207 553.741 176.844 554.232 176.118C554.742 175.373 554.997 174.441 554.997 173.323V162.612C554.997 161.494 554.742 160.572 554.232 159.846C553.741 159.101 552.927 158.728 551.789 158.728C550.652 158.728 549.837 159.101 549.347 159.846C548.876 160.572 548.641 161.494 548.641 162.612V173.323Z" fill="#000AFF"/>
<path d="M573.795 178.237H572.441L568.087 160.023V178.266H566.88V157.669H568.822L573.148 175.883L577.444 157.669H579.386V178.266H578.091V159.964L573.795 178.237Z" fill="#000AFF"/>
<path d="M591.388 158.904V178.266H590.034V157.669H599.185V178.266H597.802V158.904H591.388Z" fill="#000AFF"/>
<path d="M611.797 173.705L610.768 178.266H609.532L614.034 157.639H616.005L620.595 178.266H619.242L618.212 173.705H611.797ZM612.003 172.528H618.006L614.975 159.199L612.003 172.528Z" fill="#000AFF"/>
<path d="M632.293 168.585V178.266H630.94V157.669H632.293V167.349H638.708V157.669H640.091V178.266H638.708V168.585H632.293Z" fill="#000AFF"/>
<path d="M655.557 168.703L652.203 178.266H650.732V157.669H651.967V175.294L654.351 168.497L658.294 157.669H659.912V178.266H658.676V160.052L655.557 168.703Z" fill="#000AFF"/>
<path d="M676.026 169.056C675.437 169.056 674.908 169.115 674.437 169.233C673.966 169.331 673.554 169.517 673.201 169.792C672.868 170.047 672.613 170.4 672.436 170.851C672.26 171.302 672.171 171.871 672.171 172.558V175.794C672.171 176.363 672.142 176.844 672.083 177.236C672.024 177.609 671.906 177.952 671.73 178.266H670.318C670.533 177.933 670.671 177.55 670.729 177.118C670.788 176.667 670.818 176.226 670.818 175.794V172.587C670.818 171.469 671.043 170.547 671.495 169.821C671.965 169.095 672.73 168.615 673.79 168.379C671.808 167.928 670.818 166.506 670.818 164.113V162.318C670.818 160.866 671.161 159.728 671.848 158.904C672.534 158.081 673.662 157.669 675.232 157.669H679.528V178.266H678.174V169.056H676.026ZM675.261 158.904C674.143 158.904 673.348 159.218 672.878 159.846C672.407 160.454 672.171 161.317 672.171 162.435V164.377C672.171 165.064 672.26 165.633 672.436 166.084C672.613 166.535 672.858 166.888 673.172 167.143C673.505 167.398 673.907 167.575 674.378 167.673C674.849 167.771 675.388 167.82 675.997 167.82H678.174V158.904H675.261Z" fill="#000AFF"/>
<path d="M196.657 0.0139856L252.938 32.6924L113.09 113.434L113.382 48.0929L196.657 0.0139856Z" fill="#2F80ED"/>
<path d="M168 145L111 178L111 16L168 48.9998L168 145Z" fill="#2F80ED"/>
<path d="M0 48L56.5 15.5845V178L-1.52588e-05 145L0 48Z" fill="#000AFF"/>
<path d="M83.5 -6.10352e-05L140 32.9999L0 113V47.9999L83.5 -6.10352e-05Z" fill="#2F80ED"/>
<path d="M83.5 -6.10352e-05L139.868 32.692L0 113L0.0205231 47.9999L83.5 -6.10352e-05Z" fill="url(#paint0_linear_411_29175)"/>
<path d="M167.504 49.0001L167.504 114L26.5039 32L83.5039 -6.1823e-05L167.504 49.0001Z" fill="#000AFF"/>
<defs>
<linearGradient id="paint0_linear_411_29175" x1="125" y1="45.4999" x2="-10.5" y2="97.4999" gradientUnits="userSpaceOnUse">
<stop stop-color="#000B22"/>
<stop offset="1" stop-color="#2F80ED" stop-opacity="0"/>
</linearGradient>
</defs>
</svg>
