<svg width="56" height="90" viewBox="0 0 56 90" fill="none" xmlns="http://www.w3.org/2000/svg">
<path fill-rule="evenodd" clip-rule="evenodd" d="M44.3797 50.7117C51.4191 45.626 56 37.3479 56 28C56 12.536 43.464 0 28 0C12.536 0 0 12.536 0 28C0 37.3479 4.58089 45.626 11.6203 50.7117C17.7342 57.9527 20.7411 68.3579 23.5572 78.1025C24.6554 81.9025 25.7245 85.6021 26.9375 88.9744C27.122 89.4872 27.575 90 28 90C28.425 90 28.878 89.4872 29.0625 88.9744C30.2755 85.6021 31.3446 81.9025 32.4428 78.1025C35.2589 68.3579 38.2658 57.9527 44.3797 50.7117ZM43 28C43 36.2843 36.2843 43 28 43C19.7157 43 13 36.2843 13 28C13 19.7157 19.7157 13 28 13C36.2843 13 43 19.7157 43 28Z" fill="url(#paint0_linear_408_20401)"/>
<defs>
<linearGradient id="paint0_linear_408_20401" x1="28" y1="0" x2="28" y2="90" gradientUnits="userSpaceOnUse">
<stop stop-color="#18A5D7"/>
<stop offset="1" stop-color="#9C31FE"/>
</linearGradient>
</defs>
</svg>
