<svg width="16" height="16" viewBox="0 0 16 16" fill="none" xmlns="http://www.w3.org/2000/svg">
<path d="M1 2.55556C1 2.143 1.16389 1.74733 1.45561 1.45561C1.74733 1.16389 2.143 1 2.55556 1H5.10667C5.26984 1.00012 5.42884 1.05156 5.56117 1.14704C5.69349 1.24251 5.79244 1.37719 5.844 1.532L7.00911 5.02656C7.06815 5.20415 7.06116 5.39708 6.98945 5.56995C6.91773 5.74281 6.78609 5.88402 6.61867 5.96767L4.86322 6.84656C5.72369 8.75097 7.24903 10.2763 9.15344 11.1368L10.0323 9.38133C10.116 9.21391 10.2572 9.08227 10.4301 9.01055C10.6029 8.93884 10.7958 8.93185 10.9734 8.99089L14.468 10.156C14.6229 10.2076 14.7577 10.3067 14.8532 10.4391C14.9487 10.5716 15 10.7308 15 10.8941V13.4444C15 13.857 14.8361 14.2527 14.5444 14.5444C14.2527 14.8361 13.857 15 13.4444 15H12.6667C6.22356 15 1 9.77644 1 3.33333V2.55556Z" stroke="#0060E5" stroke-linecap="round" stroke-linejoin="round"/>
</svg>
