<svg width="24" height="24" viewBox="0 0 24 24" fill="none" xmlns="http://www.w3.org/2000/svg">
<path fill-rule="evenodd" clip-rule="evenodd" d="M18.0322 16.618C20.8625 13.0843 20.6397 7.91175 17.364 4.63604C13.8492 1.12132 8.15078 1.12131 4.63604 4.63604C1.12131 8.15078 1.12132 13.8492 4.63604 17.364C7.91175 20.6397 13.0843 20.8625 16.618 18.0322L20.1924 21.6066C20.5829 21.9971 21.2161 21.9971 21.6066 21.6066C21.9971 21.2161 21.9971 20.5829 21.6066 20.1924L18.0322 16.618ZM15.9498 6.05026C18.6834 8.78393 18.6834 13.2161 15.9498 15.9498C13.2161 18.6834 8.78393 18.6834 6.05026 15.9498C3.31659 13.2161 3.31661 8.78391 6.05026 6.05026C8.78391 3.31661 13.2161 3.31659 15.9498 6.05026Z" fill="#0C0D0F"/>
</svg>
