<svg width="42" height="43" viewBox="0 0 42 43" fill="none" xmlns="http://www.w3.org/2000/svg">
<mask id="path-1-outside-1_408_18346" maskUnits="userSpaceOnUse" x="0" y="0.000976562" width="42" height="43" fill="black">
<rect fill="white" y="0.000976562" width="42" height="43"/>
<path d="M11.1261 3.38753C2.77311 5.41274 1.27731 5.7993 1.15126 5.95056C1.01681 6.11862 1 6.32871 1 7.73207C1 9.3035 1 9.3203 1.21008 9.52199C1.45378 9.77409 1.61345 9.77409 2.41176 9.57241L3.01681 9.41274V17.7993H4.36135V9.10182L10.2689 7.68165C13.5126 6.89173 17.2941 5.98417 18.6723 5.64804L21.1849 5.0514L37.9748 9.10182V40.6564H33.9412V14.1774L33.7311 13.9758L33.5294 13.7657H8.80672L8.60504 13.9758C8.39496 14.1774 8.39496 14.1943 8.39496 15.7825C8.39496 17.3707 8.39496 17.3875 8.60504 17.5892L8.80672 17.7993H32.5966V19.1438H15.7899V20.4884H32.5966V21.8329H15.7899V23.1774H32.5966V24.522H15.7899V25.8665H32.5966V40.6564H27.8908V42.001H41.3361V40.6564H39.3193V9.41274L39.9328 9.57241C40.7227 9.77409 40.8824 9.77409 41.1261 9.52199C41.3361 9.3203 41.3361 9.3035 41.3361 7.73207C41.3361 6.3203 41.3193 6.11862 41.1849 5.95056C41.0588 5.79089 39.6303 5.42114 31.1597 3.37913C25.7395 2.0682 21.2185 1.00098 21.1261 1.00098C21.0336 1.00938 16.5378 2.07661 11.1261 3.38753ZM30.6639 4.64804C35.7731 5.88333 39.958 6.90014 39.9748 6.91694C39.9916 6.92535 39.9916 7.21946 39.9748 7.564L39.9496 8.19425L34.8235 6.95896C32.0084 6.27829 27.7815 5.25308 25.437 4.69005L21.1765 3.65644L11.8655 5.90014C6.7479 7.13543 2.5042 8.16064 2.45378 8.17745C2.36975 8.20266 2.34454 8.04299 2.34454 7.564V6.90854L4.68067 6.33711C17.6219 3.20266 21.1429 2.36232 21.2521 2.38753C21.3193 2.39593 25.5546 3.42114 30.6639 4.64804ZM32.5966 16.4548H9.7395V15.1102H32.5966V16.4548Z"/>
<path d="M19.1513 7.82447C18.7395 7.95893 18.0336 8.68162 17.9076 9.11019C17.6723 9.9001 17.8404 10.5304 18.437 11.1186C19.0168 11.6984 19.2269 11.7488 21.1849 11.7488C23.1513 11.7488 23.4202 11.6816 23.9664 11.0766C24.7227 10.2362 24.7227 9.22784 23.9664 8.3875C23.4118 7.77405 23.1597 7.71523 21.1345 7.72363C20.1597 7.73204 19.3193 7.77405 19.1513 7.82447ZM22.9748 9.26985C23.1093 9.3959 23.1849 9.57237 23.1849 9.73204C23.1849 9.8917 23.1093 10.0682 22.9748 10.1942C22.7731 10.4043 22.7563 10.4043 21.1681 10.4043C19.5798 10.4043 19.563 10.4043 19.3614 10.1942C19.2269 10.0682 19.1513 9.8917 19.1513 9.73204C19.1513 9.57237 19.2269 9.3959 19.3614 9.26985C19.563 9.05977 19.5798 9.05977 21.1681 9.05977C22.7563 9.05977 22.7731 9.05977 22.9748 9.26985Z"/>
<path d="M1.21008 19.3539L1 19.5556V41.5892L1.21008 41.7909L1.41176 42.001H26.1345L26.3361 41.7909L26.5462 41.5892V30.3119L26.3361 30.1102L26.1345 29.9001H14.4454V19.5556L14.2353 19.3539L14.0336 19.1438H1.41176L1.21008 19.3539ZM5.03361 22.2951C5.03361 24.1102 5.03361 24.1102 5.2437 24.3119L5.44538 24.522H10L10.2017 24.3119C10.4118 24.1102 10.4118 24.1102 10.4118 22.2951V20.4884H13.1008V29.9001H2.34454V20.4884H5.03361V22.2951ZM9.06723 23.1774H6.37815V20.4884H9.06723V23.1774ZM5.03361 33.0514C5.03361 34.8665 5.03361 34.8665 5.2437 35.0682L5.44538 35.2783H10L10.2017 35.0682C10.4118 34.8665 10.4118 34.8665 10.4118 33.0514V31.2447H13.1008V40.6564H2.34454V31.2447H5.03361V33.0514ZM9.06723 33.9338H6.37815V31.2447H9.06723V33.9338ZM17.1345 33.0514C17.1345 34.8665 17.1345 34.8665 17.3445 35.0682L17.5462 35.2783H22.1008L22.3025 35.0682C22.5126 34.8665 22.5126 34.8665 22.5126 33.0514V31.2447H25.2017V40.6564H14.4454V31.2447H17.1345V33.0514ZM21.1681 33.9338H18.479V31.2447H21.1681V33.9338Z"/>
<path d="M10.4119 28.5556H11.7564V27.211H10.4119V28.5556Z"/>
<path d="M10.4119 39.3119H11.7564V37.9674H10.4119V39.3119Z"/>
<path d="M22.5126 39.3119H23.8571V37.9674H22.5126V39.3119Z"/>
</mask>
<path d="M11.1261 3.38753C2.77311 5.41274 1.27731 5.7993 1.15126 5.95056C1.01681 6.11862 1 6.32871 1 7.73207C1 9.3035 1 9.3203 1.21008 9.52199C1.45378 9.77409 1.61345 9.77409 2.41176 9.57241L3.01681 9.41274V17.7993H4.36135V9.10182L10.2689 7.68165C13.5126 6.89173 17.2941 5.98417 18.6723 5.64804L21.1849 5.0514L37.9748 9.10182V40.6564H33.9412V14.1774L33.7311 13.9758L33.5294 13.7657H8.80672L8.60504 13.9758C8.39496 14.1774 8.39496 14.1943 8.39496 15.7825C8.39496 17.3707 8.39496 17.3875 8.60504 17.5892L8.80672 17.7993H32.5966V19.1438H15.7899V20.4884H32.5966V21.8329H15.7899V23.1774H32.5966V24.522H15.7899V25.8665H32.5966V40.6564H27.8908V42.001H41.3361V40.6564H39.3193V9.41274L39.9328 9.57241C40.7227 9.77409 40.8824 9.77409 41.1261 9.52199C41.3361 9.3203 41.3361 9.3035 41.3361 7.73207C41.3361 6.3203 41.3193 6.11862 41.1849 5.95056C41.0588 5.79089 39.6303 5.42114 31.1597 3.37913C25.7395 2.0682 21.2185 1.00098 21.1261 1.00098C21.0336 1.00938 16.5378 2.07661 11.1261 3.38753ZM30.6639 4.64804C35.7731 5.88333 39.958 6.90014 39.9748 6.91694C39.9916 6.92535 39.9916 7.21946 39.9748 7.564L39.9496 8.19425L34.8235 6.95896C32.0084 6.27829 27.7815 5.25308 25.437 4.69005L21.1765 3.65644L11.8655 5.90014C6.7479 7.13543 2.5042 8.16064 2.45378 8.17745C2.36975 8.20266 2.34454 8.04299 2.34454 7.564V6.90854L4.68067 6.33711C17.6219 3.20266 21.1429 2.36232 21.2521 2.38753C21.3193 2.39593 25.5546 3.42114 30.6639 4.64804ZM32.5966 16.4548H9.7395V15.1102H32.5966V16.4548Z" fill="url(#paint0_linear_408_18346)"/>
<path d="M19.1513 7.82447C18.7395 7.95893 18.0336 8.68162 17.9076 9.11019C17.6723 9.9001 17.8404 10.5304 18.437 11.1186C19.0168 11.6984 19.2269 11.7488 21.1849 11.7488C23.1513 11.7488 23.4202 11.6816 23.9664 11.0766C24.7227 10.2362 24.7227 9.22784 23.9664 8.3875C23.4118 7.77405 23.1597 7.71523 21.1345 7.72363C20.1597 7.73204 19.3193 7.77405 19.1513 7.82447ZM22.9748 9.26985C23.1093 9.3959 23.1849 9.57237 23.1849 9.73204C23.1849 9.8917 23.1093 10.0682 22.9748 10.1942C22.7731 10.4043 22.7563 10.4043 21.1681 10.4043C19.5798 10.4043 19.563 10.4043 19.3614 10.1942C19.2269 10.0682 19.1513 9.8917 19.1513 9.73204C19.1513 9.57237 19.2269 9.3959 19.3614 9.26985C19.563 9.05977 19.5798 9.05977 21.1681 9.05977C22.7563 9.05977 22.7731 9.05977 22.9748 9.26985Z" fill="url(#paint1_linear_408_18346)"/>
<path d="M1.21008 19.3539L1 19.5556V41.5892L1.21008 41.7909L1.41176 42.001H26.1345L26.3361 41.7909L26.5462 41.5892V30.3119L26.3361 30.1102L26.1345 29.9001H14.4454V19.5556L14.2353 19.3539L14.0336 19.1438H1.41176L1.21008 19.3539ZM5.03361 22.2951C5.03361 24.1102 5.03361 24.1102 5.2437 24.3119L5.44538 24.522H10L10.2017 24.3119C10.4118 24.1102 10.4118 24.1102 10.4118 22.2951V20.4884H13.1008V29.9001H2.34454V20.4884H5.03361V22.2951ZM9.06723 23.1774H6.37815V20.4884H9.06723V23.1774ZM5.03361 33.0514C5.03361 34.8665 5.03361 34.8665 5.2437 35.0682L5.44538 35.2783H10L10.2017 35.0682C10.4118 34.8665 10.4118 34.8665 10.4118 33.0514V31.2447H13.1008V40.6564H2.34454V31.2447H5.03361V33.0514ZM9.06723 33.9338H6.37815V31.2447H9.06723V33.9338ZM17.1345 33.0514C17.1345 34.8665 17.1345 34.8665 17.3445 35.0682L17.5462 35.2783H22.1008L22.3025 35.0682C22.5126 34.8665 22.5126 34.8665 22.5126 33.0514V31.2447H25.2017V40.6564H14.4454V31.2447H17.1345V33.0514ZM21.1681 33.9338H18.479V31.2447H21.1681V33.9338Z" fill="url(#paint2_linear_408_18346)"/>
<path d="M10.4119 28.5556H11.7564V27.211H10.4119V28.5556Z" fill="url(#paint3_linear_408_18346)"/>
<path d="M10.4119 39.3119H11.7564V37.9674H10.4119V39.3119Z" fill="url(#paint4_linear_408_18346)"/>
<path d="M22.5126 39.3119H23.8571V37.9674H22.5126V39.3119Z" fill="url(#paint5_linear_408_18346)"/>
<path d="M11.1261 3.38753C2.77311 5.41274 1.27731 5.7993 1.15126 5.95056C1.01681 6.11862 1 6.32871 1 7.73207C1 9.3035 1 9.3203 1.21008 9.52199C1.45378 9.77409 1.61345 9.77409 2.41176 9.57241L3.01681 9.41274V17.7993H4.36135V9.10182L10.2689 7.68165C13.5126 6.89173 17.2941 5.98417 18.6723 5.64804L21.1849 5.0514L37.9748 9.10182V40.6564H33.9412V14.1774L33.7311 13.9758L33.5294 13.7657H8.80672L8.60504 13.9758C8.39496 14.1774 8.39496 14.1943 8.39496 15.7825C8.39496 17.3707 8.39496 17.3875 8.60504 17.5892L8.80672 17.7993H32.5966V19.1438H15.7899V20.4884H32.5966V21.8329H15.7899V23.1774H32.5966V24.522H15.7899V25.8665H32.5966V40.6564H27.8908V42.001H41.3361V40.6564H39.3193V9.41274L39.9328 9.57241C40.7227 9.77409 40.8824 9.77409 41.1261 9.52199C41.3361 9.3203 41.3361 9.3035 41.3361 7.73207C41.3361 6.3203 41.3193 6.11862 41.1849 5.95056C41.0588 5.79089 39.6303 5.42114 31.1597 3.37913C25.7395 2.0682 21.2185 1.00098 21.1261 1.00098C21.0336 1.00938 16.5378 2.07661 11.1261 3.38753ZM30.6639 4.64804C35.7731 5.88333 39.958 6.90014 39.9748 6.91694C39.9916 6.92535 39.9916 7.21946 39.9748 7.564L39.9496 8.19425L34.8235 6.95896C32.0084 6.27829 27.7815 5.25308 25.437 4.69005L21.1765 3.65644L11.8655 5.90014C6.7479 7.13543 2.5042 8.16064 2.45378 8.17745C2.36975 8.20266 2.34454 8.04299 2.34454 7.564V6.90854L4.68067 6.33711C17.6219 3.20266 21.1429 2.36232 21.2521 2.38753C21.3193 2.39593 25.5546 3.42114 30.6639 4.64804ZM32.5966 16.4548H9.7395V15.1102H32.5966V16.4548Z" stroke="url(#paint6_linear_408_18346)" stroke-width="0.2" mask="url(#path-1-outside-1_408_18346)"/>
<path d="M19.1513 7.82447C18.7395 7.95893 18.0336 8.68162 17.9076 9.11019C17.6723 9.9001 17.8404 10.5304 18.437 11.1186C19.0168 11.6984 19.2269 11.7488 21.1849 11.7488C23.1513 11.7488 23.4202 11.6816 23.9664 11.0766C24.7227 10.2362 24.7227 9.22784 23.9664 8.3875C23.4118 7.77405 23.1597 7.71523 21.1345 7.72363C20.1597 7.73204 19.3193 7.77405 19.1513 7.82447ZM22.9748 9.26985C23.1093 9.3959 23.1849 9.57237 23.1849 9.73204C23.1849 9.8917 23.1093 10.0682 22.9748 10.1942C22.7731 10.4043 22.7563 10.4043 21.1681 10.4043C19.5798 10.4043 19.563 10.4043 19.3614 10.1942C19.2269 10.0682 19.1513 9.8917 19.1513 9.73204C19.1513 9.57237 19.2269 9.3959 19.3614 9.26985C19.563 9.05977 19.5798 9.05977 21.1681 9.05977C22.7563 9.05977 22.7731 9.05977 22.9748 9.26985Z" stroke="url(#paint7_linear_408_18346)" stroke-width="0.2" mask="url(#path-1-outside-1_408_18346)"/>
<path d="M1.21008 19.3539L1 19.5556V41.5892L1.21008 41.7909L1.41176 42.001H26.1345L26.3361 41.7909L26.5462 41.5892V30.3119L26.3361 30.1102L26.1345 29.9001H14.4454V19.5556L14.2353 19.3539L14.0336 19.1438H1.41176L1.21008 19.3539ZM5.03361 22.2951C5.03361 24.1102 5.03361 24.1102 5.2437 24.3119L5.44538 24.522H10L10.2017 24.3119C10.4118 24.1102 10.4118 24.1102 10.4118 22.2951V20.4884H13.1008V29.9001H2.34454V20.4884H5.03361V22.2951ZM9.06723 23.1774H6.37815V20.4884H9.06723V23.1774ZM5.03361 33.0514C5.03361 34.8665 5.03361 34.8665 5.2437 35.0682L5.44538 35.2783H10L10.2017 35.0682C10.4118 34.8665 10.4118 34.8665 10.4118 33.0514V31.2447H13.1008V40.6564H2.34454V31.2447H5.03361V33.0514ZM9.06723 33.9338H6.37815V31.2447H9.06723V33.9338ZM17.1345 33.0514C17.1345 34.8665 17.1345 34.8665 17.3445 35.0682L17.5462 35.2783H22.1008L22.3025 35.0682C22.5126 34.8665 22.5126 34.8665 22.5126 33.0514V31.2447H25.2017V40.6564H14.4454V31.2447H17.1345V33.0514ZM21.1681 33.9338H18.479V31.2447H21.1681V33.9338Z" stroke="url(#paint8_linear_408_18346)" stroke-width="0.2" mask="url(#path-1-outside-1_408_18346)"/>
<path d="M10.4119 28.5556H11.7564V27.211H10.4119V28.5556Z" stroke="url(#paint9_linear_408_18346)" stroke-width="0.2" mask="url(#path-1-outside-1_408_18346)"/>
<path d="M10.4119 39.3119H11.7564V37.9674H10.4119V39.3119Z" stroke="url(#paint10_linear_408_18346)" stroke-width="0.2" mask="url(#path-1-outside-1_408_18346)"/>
<path d="M22.5126 39.3119H23.8571V37.9674H22.5126V39.3119Z" stroke="url(#paint11_linear_408_18346)" stroke-width="0.2" mask="url(#path-1-outside-1_408_18346)"/>
<defs>
<linearGradient id="paint0_linear_408_18346" x1="21.1681" y1="1.00098" x2="21.1681" y2="42.001" gradientUnits="userSpaceOnUse">
<stop stop-color="#18A5D7"/>
<stop offset="1" stop-color="#9C31FE"/>
</linearGradient>
<linearGradient id="paint1_linear_408_18346" x1="21.1681" y1="1.00098" x2="21.1681" y2="42.001" gradientUnits="userSpaceOnUse">
<stop stop-color="#18A5D7"/>
<stop offset="1" stop-color="#9C31FE"/>
</linearGradient>
<linearGradient id="paint2_linear_408_18346" x1="21.1681" y1="1.00098" x2="21.1681" y2="42.001" gradientUnits="userSpaceOnUse">
<stop stop-color="#18A5D7"/>
<stop offset="1" stop-color="#9C31FE"/>
</linearGradient>
<linearGradient id="paint3_linear_408_18346" x1="21.1681" y1="1.00098" x2="21.1681" y2="42.001" gradientUnits="userSpaceOnUse">
<stop stop-color="#18A5D7"/>
<stop offset="1" stop-color="#9C31FE"/>
</linearGradient>
<linearGradient id="paint4_linear_408_18346" x1="21.1681" y1="1.00098" x2="21.1681" y2="42.001" gradientUnits="userSpaceOnUse">
<stop stop-color="#18A5D7"/>
<stop offset="1" stop-color="#9C31FE"/>
</linearGradient>
<linearGradient id="paint5_linear_408_18346" x1="21.1681" y1="1.00098" x2="21.1681" y2="42.001" gradientUnits="userSpaceOnUse">
<stop stop-color="#18A5D7"/>
<stop offset="1" stop-color="#9C31FE"/>
</linearGradient>
<linearGradient id="paint6_linear_408_18346" x1="21.1681" y1="1.00098" x2="21.1681" y2="42.001" gradientUnits="userSpaceOnUse">
<stop stop-color="#18A5D7"/>
<stop offset="1" stop-color="#9C31FE"/>
</linearGradient>
<linearGradient id="paint7_linear_408_18346" x1="21.1681" y1="1.00098" x2="21.1681" y2="42.001" gradientUnits="userSpaceOnUse">
<stop stop-color="#18A5D7"/>
<stop offset="1" stop-color="#9C31FE"/>
</linearGradient>
<linearGradient id="paint8_linear_408_18346" x1="21.1681" y1="1.00098" x2="21.1681" y2="42.001" gradientUnits="userSpaceOnUse">
<stop stop-color="#18A5D7"/>
<stop offset="1" stop-color="#9C31FE"/>
</linearGradient>
<linearGradient id="paint9_linear_408_18346" x1="21.1681" y1="1.00098" x2="21.1681" y2="42.001" gradientUnits="userSpaceOnUse">
<stop stop-color="#18A5D7"/>
<stop offset="1" stop-color="#9C31FE"/>
</linearGradient>
<linearGradient id="paint10_linear_408_18346" x1="21.1681" y1="1.00098" x2="21.1681" y2="42.001" gradientUnits="userSpaceOnUse">
<stop stop-color="#18A5D7"/>
<stop offset="1" stop-color="#9C31FE"/>
</linearGradient>
<linearGradient id="paint11_linear_408_18346" x1="21.1681" y1="1.00098" x2="21.1681" y2="42.001" gradientUnits="userSpaceOnUse">
<stop stop-color="#18A5D7"/>
<stop offset="1" stop-color="#9C31FE"/>
</linearGradient>
</defs>
</svg>
